<svg width="463" height="290" viewBox="0 0 463 290" fill="none" xmlns="http://www.w3.org/2000/svg">
<path d="M196.8 153.6H201.8V148.6H196.8V153.6ZM196.8 194.4V199.4H201.8V194.4H196.8ZM124.6 194.4V189.4H119.6V194.4H124.6ZM124.6 233.4V238.4H129.6V233.4H124.6ZM75.4 233.4H70.4V238.4H75.4V233.4ZM75.4 194.4H80.4V189.4H75.4V194.4ZM3.2 194.4H-1.8V199.4H3.2V194.4ZM3.2 153.6V148.6H-1.8V153.6H3.2ZM27 153.6V158.6H32.9358L31.9273 152.75L27 153.6ZM24 129.8L23.7869 124.805L18.5919 125.026L19.0167 130.208L24 129.8ZM66.2 128L71.1976 127.844L71.0396 122.789L65.9869 123.005L66.2 128ZM67.4 153.6L62.4097 153.912L62.7027 158.6H67.4V153.6ZM75.4 153.6V158.6H80.4V153.6H75.4ZM75.4 121.2H80.4V116.2H75.4V121.2ZM11.8 121.2H6.8V126.2H11.8V121.2ZM11.8 83.4V78.4H6.8V83.4H11.8ZM188.2 83.4H193.2V78.4H188.2V83.4ZM188.2 121.2V126.2H193.2V121.2H188.2ZM124.6 121.2V116.2H119.6V121.2H124.6ZM124.6 153.6H119.6V158.6H124.6V153.6ZM132.4 153.6V158.6H137.078L137.389 153.933L132.4 153.6ZM133.8 128L134.013 123.005L129.045 122.793L128.806 127.759L133.8 128ZM176 129.8L180.976 130.289L181.493 125.03L176.213 124.805L176 129.8ZM173 153.6L168.059 152.833L167.164 158.6H173V153.6ZM191.8 153.6V194.4H201.8V153.6H191.8ZM196.8 189.4H124.6V199.4H196.8V189.4ZM119.6 194.4V233.4H129.6V194.4H119.6ZM124.6 228.4H75.4V238.4H124.6V228.4ZM80.4 233.4V194.4H70.4V233.4H80.4ZM75.4 189.4H3.2V199.4H75.4V189.4ZM8.2 194.4V153.6H-1.8V194.4H8.2ZM3.2 158.6H27V148.6H3.2V158.6ZM31.9273 152.75C30.6201 145.169 29.6383 137.383 28.9833 129.392L19.0167 130.208C19.695 138.484 20.7132 146.564 22.0727 154.45L31.9273 152.75ZM24.2131 134.795L66.4131 132.995L65.9869 123.005L23.7869 124.805L24.2131 134.795ZM61.2024 128.156C61.4707 136.742 61.8732 145.327 62.4097 153.912L72.3903 153.288C71.8602 144.807 71.4626 136.325 71.1976 127.844L61.2024 128.156ZM67.4 158.6H75.4V148.6H67.4V158.6ZM80.4 153.6V121.2H70.4V153.6H80.4ZM75.4 116.2H11.8V126.2H75.4V116.2ZM16.8 121.2V83.4H6.8V121.2H16.8ZM11.8 88.4H188.2V78.4H11.8V88.4ZM183.2 83.4V121.2H193.2V83.4H183.2ZM188.2 116.2H124.6V126.2H188.2V116.2ZM119.6 121.2V153.6H129.6V121.2H119.6ZM124.6 158.6H132.4V148.6H124.6V158.6ZM137.389 153.933C137.792 147.887 138.26 139.317 138.794 128.241L128.806 127.759C128.273 138.816 127.808 147.313 127.411 153.267L137.389 153.933ZM133.587 132.995L175.787 134.795L176.213 124.805L134.013 123.005L133.587 132.995ZM171.024 129.311C170.233 137.355 169.244 145.196 168.059 152.833L177.941 154.367C179.156 146.537 180.167 138.511 180.976 130.289L171.024 129.311ZM173 158.6H196.8V148.6H173V158.6Z" fill="#8B0808"/>
<path d="M459.2 128.4H464.2V123.4H459.2V128.4ZM459.2 163V168H464.2V163H459.2ZM451.4 163V158H446.4V163H451.4ZM447.6 226.4L443.975 222.956L443.97 222.961L447.6 226.4ZM433 232L432.193 227.066L432.185 227.067L432.178 227.068L433 232ZM400 233.8L395.13 234.933L396.029 238.8H400V233.8ZM396 220L391.257 221.581L391.292 221.689L391.333 221.795L396 220ZM389.8 209L390 204.004L379.176 203.571L385.868 212.089L389.8 209ZM409.8 208.8L408.587 203.949L408.507 203.969L408.426 203.992L409.8 208.8ZM411.2 207.6H406.2V208.216L406.349 208.813L411.2 207.6ZM411.2 206H416.2V201H411.2V206ZM365 206V201H360V206H365ZM365 232.8V237.8H370V232.8H365ZM325 232.8H320V237.8H325V232.8ZM325 163H330V158H325V163ZM317.4 163H312.4V168H317.4V163ZM317.4 148.8H322.4V132.667L313.276 145.972L317.4 148.8ZM307.8 162.8L303.676 159.972L299.173 166.54L307.045 167.743L307.8 162.8ZM322.2 165L327.062 166.167L328.331 160.879L322.955 160.057L322.2 165ZM307.2 232.6L306.14 237.486L311.053 238.552L312.092 233.634L307.2 232.6ZM264.8 223.4L260.135 221.6L258.033 227.048L263.74 228.286L264.8 223.4ZM272 201.8L267.203 200.389L267.19 200.433L267.178 200.476L272 201.8ZM279.2 175L284.047 176.226L284.049 176.22L284.051 176.213L279.2 175ZM281 167.8L285.851 169.013L281 167.8ZM283.2 159.2L283.939 154.255L279.496 153.591L278.362 157.938L283.2 159.2ZM300.6 161.8L299.861 166.745L302.91 157.365L300.6 161.8ZM282.4 153.6L280.524 158.235L280.59 158.261L280.656 158.286L282.4 153.6ZM264 147.8L259.884 144.961L255.746 150.961L262.833 152.662L264 147.8ZM284 118.8L285.269 113.964L281.876 113.073L279.884 115.961L284 118.8ZM317.4 131.4L315.226 135.903L322.4 139.366V131.4H317.4ZM317.4 128.4V123.4H312.4V128.4H317.4ZM326.4 128.4V133.4H331.4V128.4H326.4ZM326.4 100.6H331.4V83.0633L322.152 97.9632L326.4 100.6ZM312 123.8L310.216 128.471L314.072 129.944L316.248 126.437L312 123.8ZM264.8 108L260.728 105.099L256.519 111.007L263.538 112.838L264.8 108ZM286.6 77.4L288.111 72.6338L284.64 71.5333L282.528 74.4988L286.6 77.4ZM311 86.6L309.114 91.2305L309.149 91.2449L309.185 91.2589L311 86.6ZM326.4 92.6L324.585 97.2589L331.4 99.9141V92.6H326.4ZM326.4 81.6V76.6H321.4V81.6H326.4ZM453.2 81.6H458.2V76.6H453.2V81.6ZM453.2 128.4H448.2V133.4H453.2V128.4ZM413 106.4H418V101.4H413V106.4ZM366.2 106.4V101.4H361.2V106.4H366.2ZM366.2 128.4H361.2V133.4H366.2V128.4ZM371 128.4V133.4H376V128.4H371ZM371 110V105H366V110H371ZM413 110V115H418V110H413ZM401 125V120H396V125H401ZM401 128.4H396V133.4H401V128.4ZM413 128.4V133.4H418V128.4H413ZM413 125H418V120H413V125ZM417 152.6V157.6H422V152.6H417ZM417 149.2H422V144.2H417V149.2ZM360.8 149.2V144.2H355.8V149.2H360.8ZM360.8 152.6H355.8V157.6H360.8V152.6ZM411.2 172.2H416.2V167.2H411.2V172.2ZM365 172.2V167.2H360V172.2H365ZM365 175.4H360V180.4H365V175.4ZM411.2 175.4V180.4H416.2V175.4H411.2ZM365 189V184H360V189H365ZM365 192.4H360V197.4H365V192.4ZM411.2 192.4V197.4H416.2V192.4H411.2ZM411.2 189H416.2V184H411.2V189ZM454.2 128.4V163H464.2V128.4H454.2ZM459.2 158H451.4V168H459.2V158ZM446.4 163V214.8H456.4V163H446.4ZM446.4 214.8C446.4 219.075 445.338 221.522 443.975 222.956L451.225 229.844C454.929 225.945 456.4 220.658 456.4 214.8H446.4ZM443.97 222.961C442.801 224.195 439.436 225.88 432.193 227.066L433.807 236.934C441.231 235.72 447.599 233.672 451.23 229.839L443.97 222.961ZM432.178 227.068C425.404 228.197 414.744 228.8 400 228.8V238.8C414.856 238.8 426.197 238.203 433.822 236.932L432.178 227.068ZM404.87 232.667C403.511 226.823 402.116 221.974 400.667 218.205L391.333 221.795C392.55 224.959 393.823 229.311 395.13 234.933L404.87 232.667ZM400.743 218.419C399.322 214.156 396.935 209.988 393.732 205.911L385.868 212.089C388.532 215.479 390.278 218.644 391.257 221.581L400.743 218.419ZM389.6 213.996C393.019 214.133 397.022 214.2 401.6 214.2V204.2C397.111 204.2 393.248 204.134 390 204.004L389.6 213.996ZM401.6 214.2C403.903 214.2 405.811 214.166 407.294 214.094C408.588 214.031 410.069 213.923 411.174 213.608L408.426 203.992C408.608 203.94 408.6 203.963 408.22 204.004C407.896 204.04 407.433 204.075 406.806 204.106C405.556 204.167 403.831 204.2 401.6 204.2V214.2ZM411.013 213.651C411.794 213.455 413.084 213.056 414.204 212.096C414.824 211.565 415.499 210.768 415.896 209.657C416.306 208.51 416.296 207.369 416.051 206.387L406.349 208.813C406.17 208.097 406.153 207.207 406.479 206.293C406.792 205.415 407.309 204.835 407.696 204.504C408.35 203.944 408.873 203.878 408.587 203.949L411.013 213.651ZM416.2 207.6C416.2 207.599 416.2 207.598 416.2 207.597C416.2 207.596 416.2 207.595 416.2 207.594C416.2 207.593 416.2 207.592 416.2 207.591C416.2 207.59 416.2 207.589 416.2 207.588C416.2 207.587 416.2 207.585 416.2 207.584C416.2 207.583 416.2 207.582 416.2 207.581C416.2 207.58 416.2 207.579 416.2 207.578C416.2 207.577 416.2 207.576 416.2 207.575C416.2 207.574 416.2 207.573 416.2 207.572C416.2 207.571 416.2 207.57 416.2 207.569C416.2 207.568 416.2 207.567 416.2 207.566C416.2 207.565 416.2 207.564 416.2 207.563C416.2 207.562 416.2 207.561 416.2 207.56C416.2 207.559 416.2 207.558 416.2 207.557C416.2 207.556 416.2 207.555 416.2 207.554C416.2 207.553 416.2 207.552 416.2 207.551C416.2 207.55 416.2 207.549 416.2 207.548C416.2 207.547 416.2 207.546 416.2 207.544C416.2 207.543 416.2 207.542 416.2 207.541C416.2 207.54 416.2 207.539 416.2 207.538C416.2 207.537 416.2 207.536 416.2 207.535C416.2 207.534 416.2 207.533 416.2 207.532C416.2 207.531 416.2 207.53 416.2 207.529C416.2 207.528 416.2 207.527 416.2 207.526C416.2 207.525 416.2 207.524 416.2 207.523C416.2 207.522 416.2 207.521 416.2 207.52C416.2 207.519 416.2 207.518 416.2 207.517C416.2 207.516 416.2 207.515 416.2 207.514C416.2 207.513 416.2 207.512 416.2 207.511C416.2 207.51 416.2 207.509 416.2 207.508C416.2 207.507 416.2 207.506 416.2 207.505C416.2 207.504 416.2 207.503 416.2 207.502C416.2 207.501 416.2 207.5 416.2 207.499C416.2 207.498 416.2 207.497 416.2 207.496C416.2 207.495 416.2 207.494 416.2 207.493C416.2 207.492 416.2 207.491 416.2 207.49C416.2 207.489 416.2 207.488 416.2 207.488C416.2 207.487 416.2 207.486 416.2 207.485C416.2 207.484 416.2 207.483 416.2 207.482C416.2 207.481 416.2 207.48 416.2 207.479C416.2 207.478 416.2 207.477 416.2 207.476C416.2 207.475 416.2 207.474 416.2 207.473C416.2 207.472 416.2 207.471 416.2 207.47C416.2 207.469 416.2 207.468 416.2 207.467C416.2 207.466 416.2 207.465 416.2 207.464C416.2 207.463 416.2 207.462 416.2 207.461C416.2 207.46 416.2 207.459 416.2 207.458C416.2 207.457 416.2 207.456 416.2 207.455C416.2 207.454 416.2 207.453 416.2 207.452C416.2 207.451 416.2 207.45 416.2 207.449C416.2 207.449 416.2 207.448 416.2 207.447C416.2 207.446 416.2 207.445 416.2 207.444C416.2 207.443 416.2 207.442 416.2 207.441C416.2 207.44 416.2 207.439 416.2 207.438C416.2 207.437 416.2 207.436 416.2 207.435C416.2 207.434 416.2 207.433 416.2 207.432C416.2 207.431 416.2 207.43 416.2 207.429C416.2 207.428 416.2 207.427 416.2 207.426C416.2 207.425 416.2 207.425 416.2 207.424C416.2 207.423 416.2 207.422 416.2 207.421C416.2 207.42 416.2 207.419 416.2 207.418C416.2 207.417 416.2 207.416 416.2 207.415C416.2 207.414 416.2 207.413 416.2 207.412C416.2 207.411 416.2 207.41 416.2 207.409C416.2 207.408 416.2 207.407 416.2 207.407C416.2 207.406 416.2 207.405 416.2 207.404C416.2 207.403 416.2 207.402 416.2 207.401C416.2 207.4 416.2 207.399 416.2 207.398C416.2 207.397 416.2 207.396 416.2 207.395C416.2 207.394 416.2 207.393 416.2 207.392C416.2 207.392 416.2 207.391 416.2 207.39C416.2 207.389 416.2 207.388 416.2 207.387C416.2 207.386 416.2 207.385 416.2 207.384C416.2 207.383 416.2 207.382 416.2 207.381C416.2 207.38 416.2 207.379 416.2 207.378C416.2 207.378 416.2 207.377 416.2 207.376C416.2 207.375 416.2 207.374 416.2 207.373C416.2 207.372 416.2 207.371 416.2 207.37C416.2 207.369 416.2 207.368 416.2 207.367C416.2 207.366 416.2 207.366 416.2 207.365C416.2 207.364 416.2 207.363 416.2 207.362C416.2 207.361 416.2 207.36 416.2 207.359C416.2 207.358 416.2 207.357 416.2 207.356C416.2 207.355 416.2 207.355 416.2 207.354C416.2 207.353 416.2 207.352 416.2 207.351C416.2 207.35 416.2 207.349 416.2 207.348C416.2 207.347 416.2 207.346 416.2 207.345C416.2 207.345 416.2 207.344 416.2 207.343C416.2 207.342 416.2 207.341 416.2 207.34C416.2 207.339 416.2 207.338 416.2 207.337C416.2 207.336 416.2 207.335 416.2 207.335C416.2 207.334 416.2 207.333 416.2 207.332C416.2 207.331 416.2 207.33 416.2 207.329C416.2 207.328 416.2 207.327 416.2 207.326C416.2 207.326 416.2 207.325 416.2 207.324C416.2 207.323 416.2 207.322 416.2 207.321C416.2 207.32 416.2 207.319 416.2 207.318C416.2 207.318 416.2 207.317 416.2 207.316C416.2 207.315 416.2 207.314 416.2 207.313C416.2 207.312 416.2 207.311 416.2 207.31C416.2 207.309 416.2 207.309 416.2 207.308C416.2 207.307 416.2 207.306 416.2 207.305C416.2 207.304 416.2 207.303 416.2 207.302C416.2 207.302 416.2 207.301 416.2 207.3C416.2 207.299 416.2 207.298 416.2 207.297C416.2 207.296 416.2 207.295 416.2 207.294C416.2 207.294 416.2 207.293 416.2 207.292C416.2 207.291 416.2 207.29 416.2 207.289C416.2 207.288 416.2 207.287 416.2 207.287C416.2 207.286 416.2 207.285 416.2 207.284C416.2 207.283 416.2 207.282 416.2 207.281C416.2 207.28 416.2 207.28 416.2 207.279C416.2 207.278 416.2 207.277 416.2 207.276C416.2 207.275 416.2 207.274 416.2 207.273C416.2 207.273 416.2 207.272 416.2 207.271C416.2 207.27 416.2 207.269 416.2 207.268C416.2 207.267 416.2 207.267 416.2 207.266C416.2 207.265 416.2 207.264 416.2 207.263C416.2 207.262 416.2 207.261 416.2 207.261C416.2 207.26 416.2 207.259 416.2 207.258C416.2 207.257 416.2 207.256 416.2 207.255C416.2 207.255 416.2 207.254 416.2 207.253C416.2 207.252 416.2 207.251 416.2 207.25C416.2 207.249 416.2 207.249 416.2 207.248C416.2 207.247 416.2 207.246 416.2 207.245C416.2 207.244 416.2 207.243 416.2 207.243C416.2 207.242 416.2 207.241 416.2 207.24C416.2 207.239 416.2 207.238 416.2 207.238C416.2 207.237 416.2 207.236 416.2 207.235C416.2 207.234 416.2 207.233 416.2 207.232C416.2 207.232 416.2 207.231 416.2 207.23C416.2 207.229 416.2 207.228 416.2 207.227C416.2 207.227 416.2 207.226 416.2 207.225C416.2 207.224 416.2 207.223 416.2 207.222C416.2 207.222 416.2 207.221 416.2 207.22C416.2 207.219 416.2 207.218 416.2 207.217C416.2 207.216 416.2 207.216 416.2 207.215C416.2 207.214 416.2 207.213 416.2 207.212C416.2 207.212 416.2 207.211 416.2 207.21C416.2 207.209 416.2 207.208 416.2 207.207C416.2 207.207 416.2 207.206 416.2 207.205C416.2 207.204 416.2 207.203 416.2 207.202C416.2 207.202 416.2 207.201 416.2 207.2C416.2 207.199 416.2 207.198 416.2 207.197C416.2 207.197 416.2 207.196 416.2 207.195C416.2 207.194 416.2 207.193 416.2 207.193C416.2 207.192 416.2 207.191 416.2 207.19C416.2 207.189 416.2 207.188 416.2 207.188C416.2 207.187 416.2 207.186 416.2 207.185C416.2 207.184 416.2 207.184 416.2 207.183C416.2 207.182 416.2 207.181 416.2 207.18C416.2 207.18 416.2 207.179 416.2 207.178C416.2 207.177 416.2 207.176 416.2 207.175C416.2 207.175 416.2 207.174 416.2 207.173C416.2 207.172 416.2 207.171 416.2 207.171C416.2 207.17 416.2 207.169 416.2 207.168C416.2 207.167 416.2 207.167 416.2 207.166C416.2 207.165 416.2 207.164 416.2 207.163C416.2 207.163 416.2 207.162 416.2 207.161C416.2 207.16 416.2 207.159 416.2 207.159C416.2 207.158 416.2 207.157 416.2 207.156C416.2 207.155 416.2 207.155 416.2 207.154C416.2 207.153 416.2 207.152 416.2 207.151C416.2 207.151 416.2 207.15 416.2 207.149C416.2 207.148 416.2 207.147 416.2 207.147C416.2 207.146 416.2 207.145 416.2 207.144C416.2 207.144 416.2 207.143 416.2 207.142C416.2 207.141 416.2 207.14 416.2 207.14C416.2 207.139 416.2 207.138 416.2 207.137C416.2 207.136 416.2 207.136 416.2 207.135C416.2 207.134 416.2 207.133 416.2 207.133C416.2 207.132 416.2 207.131 416.2 207.13C416.2 207.129 416.2 207.129 416.2 207.128C416.2 207.127 416.2 207.126 416.2 207.126C416.2 207.125 416.2 207.124 416.2 207.123C416.2 207.122 416.2 207.122 416.2 207.121C416.2 207.12 416.2 207.119 416.2 207.119C416.2 207.118 416.2 207.117 416.2 207.116C416.2 207.115 416.2 207.115 416.2 207.114C416.2 207.113 416.2 207.112 416.2 207.112C416.2 207.111 416.2 207.11 416.2 207.109C416.2 207.109 416.2 207.108 416.2 207.107C416.2 207.106 416.2 207.106 416.2 207.105C416.2 207.104 416.2 207.103 416.2 207.102C416.2 207.102 416.2 207.101 416.2 207.1C416.2 207.099 416.2 207.099 416.2 207.098C416.2 207.097 416.2 207.096 416.2 207.096C416.2 207.095 416.2 207.094 416.2 207.093C416.2 207.093 416.2 207.092 416.2 207.091C416.2 207.09 416.2 207.09 416.2 207.089C416.2 207.088 416.2 207.087 416.2 207.087C416.2 207.086 416.2 207.085 416.2 207.084C416.2 207.084 416.2 207.083 416.2 207.082C416.2 207.081 416.2 207.081 416.2 207.08C416.2 207.079 416.2 207.078 416.2 207.078C416.2 207.077 416.2 207.076 416.2 207.075C416.2 207.075 416.2 207.074 416.2 207.073C416.2 207.072 416.2 207.072 416.2 207.071C416.2 207.07 416.2 207.07 416.2 207.069C416.2 207.068 416.2 207.067 416.2 207.067C416.2 207.066 416.2 207.065 416.2 207.064C416.2 207.064 416.2 207.063 416.2 207.062C416.2 207.061 416.2 207.061 416.2 207.06C416.2 207.059 416.2 207.058 416.2 207.058C416.2 207.057 416.2 207.056 416.2 207.056C416.2 207.055 416.2 207.054 416.2 207.053C416.2 207.053 416.2 207.052 416.2 207.051C416.2 207.05 416.2 207.05 416.2 207.049C416.2 207.048 416.2 207.048 416.2 207.047C416.2 207.046 416.2 207.045 416.2 207.045C416.2 207.044 416.2 207.043 416.2 207.043C416.2 207.042 416.2 207.041 416.2 207.04C416.2 207.04 416.2 207.039 416.2 207.038C416.2 207.038 416.2 207.037 416.2 207.036C416.2 207.035 416.2 207.035 416.2 207.034C416.2 207.033 416.2 207.033 416.2 207.032C416.2 207.031 416.2 207.03 416.2 207.03C416.2 207.029 416.2 207.028 416.2 207.028C416.2 207.027 416.2 207.026 416.2 207.025C416.2 207.025 416.2 207.024 416.2 207.023C416.2 207.023 416.2 207.022 416.2 207.021C416.2 207.02 416.2 207.02 416.2 207.019C416.2 207.018 416.2 207.018 416.2 207.017C416.2 207.016 416.2 207.016 416.2 207.015C416.2 207.014 416.2 207.013 416.2 207.013C416.2 207.012 416.2 207.011 416.2 207.011C416.2 207.01 416.2 207.009 416.2 207.009C416.2 207.008 416.2 207.007 416.2 207.006C416.2 207.006 416.2 207.005 416.2 207.004C416.2 207.004 416.2 207.003 416.2 207.002C416.2 207.002 416.2 207.001 416.2 207C416.2 207 416.2 206.999 416.2 206.998C416.2 206.997 416.2 206.997 416.2 206.996C416.2 206.995 416.2 206.995 416.2 206.994C416.2 206.993 416.2 206.993 416.2 206.992C416.2 206.991 416.2 206.991 416.2 206.99C416.2 206.989 416.2 206.989 416.2 206.988C416.2 206.987 416.2 206.987 416.2 206.986C416.2 206.985 416.2 206.985 416.2 206.984C416.2 206.983 416.2 206.983 416.2 206.982C416.2 206.981 416.2 206.98 416.2 206.98C416.2 206.979 416.2 206.978 416.2 206.978C416.2 206.977 416.2 206.976 416.2 206.976C416.2 206.975 416.2 206.974 416.2 206.974C416.2 206.973 416.2 206.972 416.2 206.972C416.2 206.971 416.2 206.97 416.2 206.97C416.2 206.969 416.2 206.968 416.2 206.968C416.2 206.967 416.2 206.966 416.2 206.966C416.2 206.965 416.2 206.964 416.2 206.964C416.2 206.963 416.2 206.962 416.2 206.962C416.2 206.961 416.2 206.96 416.2 206.96C416.2 206.959 416.2 206.959 416.2 206.958C416.2 206.957 416.2 206.957 416.2 206.956C416.2 206.955 416.2 206.955 416.2 206.954C416.2 206.953 416.2 206.953 416.2 206.952C416.2 206.951 416.2 206.951 416.2 206.95C416.2 206.949 416.2 206.949 416.2 206.948C416.2 206.947 416.2 206.947 416.2 206.946C416.2 206.945 416.2 206.945 416.2 206.944C416.2 206.944 416.2 206.943 416.2 206.942C416.2 206.942 416.2 206.941 416.2 206.94C416.2 206.94 416.2 206.939 416.2 206.938C416.2 206.938 416.2 206.937 416.2 206.936C416.2 206.936 416.2 206.935 416.2 206.935C416.2 206.934 416.2 206.933 416.2 206.933C416.2 206.932 416.2 206.931 416.2 206.931C416.2 206.93 416.2 206.929 416.2 206.929C416.2 206.928 416.2 206.928 416.2 206.927C416.2 206.926 416.2 206.926 416.2 206.925C416.2 206.924 416.2 206.924 416.2 206.923C416.2 206.922 416.2 206.922 416.2 206.921C416.2 206.921 416.2 206.92 416.2 206.919C416.2 206.919 416.2 206.918 416.2 206.917C416.2 206.917 416.2 206.916 416.2 206.916C416.2 206.915 416.2 206.914 416.2 206.914C416.2 206.913 416.2 206.912 416.2 206.912C416.2 206.911 416.2 206.911 416.2 206.91C416.2 206.909 416.2 206.909 416.2 206.908C416.2 206.908 416.2 206.907 416.2 206.906C416.2 206.906 416.2 206.905 416.2 206.904C416.2 206.904 416.2 206.903 416.2 206.903C416.2 206.902 416.2 206.901 416.2 206.901C416.2 206.9 416.2 206.9 416.2 206.899C416.2 206.898 416.2 206.898 416.2 206.897C416.2 206.896 416.2 206.896 416.2 206.895C416.2 206.895 416.2 206.894 416.2 206.893C416.2 206.893 416.2 206.892 416.2 206.892C416.2 206.891 416.2 206.89 416.2 206.89C416.2 206.889 416.2 206.889 416.2 206.888C416.2 206.887 416.2 206.887 416.2 206.886C416.2 206.886 416.2 206.885 416.2 206.884C416.2 206.884 416.2 206.883 416.2 206.883C416.2 206.882 416.2 206.881 416.2 206.881C416.2 206.88 416.2 206.88 416.2 206.879C416.2 206.878 416.2 206.878 416.2 206.877C416.2 206.877 416.2 206.876 416.2 206.876C416.2 206.875 416.2 206.874 416.2 206.874C416.2 206.873 416.2 206.873 416.2 206.872C416.2 206.871 416.2 206.871 416.2 206.87C416.2 206.87 416.2 206.869 416.2 206.868C416.2 206.868 416.2 206.867 416.2 206.867C416.2 206.866 416.2 206.866 416.2 206.865C416.2 206.864 416.2 206.864 416.2 206.863C416.2 206.863 416.2 206.862 416.2 206.862C416.2 206.861 416.2 206.86 416.2 206.86C416.2 206.859 416.2 206.859 416.2 206.858C416.2 206.857 416.2 206.857 416.2 206.856C416.2 206.856 416.2 206.855 416.2 206.855C416.2 206.854 416.2 206.853 416.2 206.853C416.2 206.852 416.2 206.852 416.2 206.851C416.2 206.851 416.2 206.85 416.2 206.85C416.2 206.849 416.2 206.848 416.2 206.848C416.2 206.847 416.2 206.847 416.2 206.846C416.2 206.846 416.2 206.845 416.2 206.844C416.2 206.844 416.2 206.843 416.2 206.843C416.2 206.842 416.2 206.842 416.2 206.841C416.2 206.84 416.2 206.84 416.2 206.839C416.2 206.839 416.2 206.838 416.2 206.838C416.2 206.837 416.2 206.837 416.2 206.836C416.2 206.835 416.2 206.835 416.2 206.834C416.2 206.834 416.2 206.833 416.2 206.833C416.2 206.832 416.2 206.832 416.2 206.831C416.2 206.831 416.2 206.83 416.2 206.829C416.2 206.829 416.2 206.828 416.2 206.828C416.2 206.827 416.2 206.827 416.2 206.826C416.2 206.826 416.2 206.825 416.2 206.824C416.2 206.824 416.2 206.823 416.2 206.823C416.2 206.822 416.2 206.822 416.2 206.821C416.2 206.821 416.2 206.82 416.2 206.82C416.2 206.819 416.2 206.819 416.2 206.818C416.2 206.817 416.2 206.817 416.2 206.816C416.2 206.816 416.2 206.815 416.2 206.815C416.2 206.814 416.2 206.814 416.2 206.813C416.2 206.813 416.2 206.812 416.2 206.812C416.2 206.811 416.2 206.811 416.2 206.81C416.2 206.809 416.2 206.809 416.2 206.808C416.2 206.808 416.2 206.807 416.2 206.807C416.2 206.806 416.2 206.806 416.2 206.805C416.2 206.805 416.2 206.804 416.2 206.804C416.2 206.803 416.2 206.803 416.2 206.802C416.2 206.802 416.2 206.801 416.2 206.801C416.2 206.8 416.2 206.799 416.2 206.799C416.2 206.798 416.2 206.798 416.2 206.797C416.2 206.797 416.2 206.796 416.2 206.796C416.2 206.795 416.2 206.795 416.2 206.794C416.2 206.794 416.2 206.793 416.2 206.793C416.2 206.792 416.2 206.792 416.2 206.791C416.2 206.791 416.2 206.79 416.2 206.79C416.2 206.789 416.2 206.789 416.2 206.788C416.2 206.788 416.2 206.787 416.2 206.787C416.2 206.786 416.2 206.786 416.2 206.785C416.2 206.785 416.2 206.784 416.2 206.784C416.2 206.783 416.2 206.783 416.2 206.782C416.2 206.782 416.2 206.781 416.2 206.781C416.2 206.78 416.2 206.78 416.2 206.779C416.2 206.779 416.2 206.778 416.2 206.778C416.2 206.777 416.2 206.777 416.2 206.776C416.2 206.776 416.2 206.775 416.2 206.775C416.2 206.774 416.2 206.774 416.2 206.773C416.2 206.773 416.2 206.772 416.2 206.772C416.2 206.771 416.2 206.771 416.2 206.77C416.2 206.77 416.2 206.769 416.2 206.769C416.2 206.768 416.2 206.768 416.2 206.767C416.2 206.767 416.2 206.766 416.2 206.766C416.2 206.765 416.2 206.765 416.2 206.764C416.2 206.764 416.2 206.763 416.2 206.763C416.2 206.762 416.2 206.762 416.2 206.761C416.2 206.761 416.2 206.76 416.2 206.76C416.2 206.759 416.2 206.759 416.2 206.759C416.2 206.758 416.2 206.758 416.2 206.757C416.2 206.757 416.2 206.756 416.2 206.756C416.2 206.755 416.2 206.755 416.2 206.754C416.2 206.754 416.2 206.753 416.2 206.753C416.2 206.752 416.2 206.752 416.2 206.751C416.2 206.751 416.2 206.75 416.2 206.75C416.2 206.75 416.2 206.749 416.2 206.749C416.2 206.748 416.2 206.748 416.2 206.747C416.2 206.747 416.2 206.746 416.2 206.746C416.2 206.745 416.2 206.745 416.2 206.744C416.2 206.744 416.2 206.743 416.2 206.743C416.2 206.743 416.2 206.742 416.2 206.742C416.2 206.741 416.2 206.741 416.2 206.74C416.2 206.74 416.2 206.739 416.2 206.739C416.2 206.738 416.2 206.738 416.2 206.738C416.2 206.737 416.2 206.737 416.2 206.736C416.2 206.736 416.2 206.735 416.2 206.735C416.2 206.734 416.2 206.734 416.2 206.733C416.2 206.733 416.2 206.733 416.2 206.732C416.2 206.732 416.2 206.731 416.2 206.731C416.2 206.73 416.2 206.73 416.2 206.729C416.2 206.729 416.2 206.728 416.2 206.728C416.2 206.728 416.2 206.727 416.2 206.727C416.2 206.726 416.2 206.726 416.2 206.725C416.2 206.725 416.2 206.725 416.2 206.724C416.2 206.724 416.2 206.723 416.2 206.723C416.2 206.722 416.2 206.722 416.2 206.721C416.2 206.721 416.2 206.721 416.2 206.72C416.2 206.72 416.2 206.719 416.2 206.719C416.2 206.718 416.2 206.718 416.2 206.718C416.2 206.717 416.2 206.717 416.2 206.716C416.2 206.716 416.2 206.715 416.2 206.715C416.2 206.714 416.2 206.714 416.2 206.714C416.2 206.713 416.2 206.713 416.2 206.712C416.2 206.712 416.2 206.712 416.2 206.711C416.2 206.711 416.2 206.71 416.2 206.71C416.2 206.709 416.2 206.709 416.2 206.709C416.2 206.708 416.2 206.708 416.2 206.707C416.2 206.707 416.2 206.706 416.2 206.706C416.2 206.706 416.2 206.705 416.2 206.705C416.2 206.704 416.2 206.704 416.2 206.704C416.2 206.703 416.2 206.703 416.2 206.702C416.2 206.702 416.2 206.701 416.2 206.701C416.2 206.701 416.2 206.7 416.2 206.7C416.2 206.699 416.2 206.699 416.2 206.699C416.2 206.698 416.2 206.698 416.2 206.697C416.2 206.697 416.2 206.697 416.2 206.696C416.2 206.696 416.2 206.695 416.2 206.695C416.2 206.694 416.2 206.694 416.2 206.694C416.2 206.693 416.2 206.693 416.2 206.692C416.2 206.692 416.2 206.692 416.2 206.691C416.2 206.691 416.2 206.69 416.2 206.69C416.2 206.69 416.2 206.689 416.2 206.689C416.2 206.688 416.2 206.688 416.2 206.688C416.2 206.687 416.2 206.687 416.2 206.686C416.2 206.686 416.2 206.686 416.2 206.685C416.2 206.685 416.2 206.685 416.2 206.684C416.2 206.684 416.2 206.683 416.2 206.683C416.2 206.683 416.2 206.682 416.2 206.682C416.2 206.681 416.2 206.681 416.2 206.681C416.2 206.68 416.2 206.68 416.2 206.679C416.2 206.679 416.2 206.679 416.2 206.678C416.2 206.678 416.2 206.678 416.2 206.677C416.2 206.677 416.2 206.676 416.2 206.676C416.2 206.676 416.2 206.675 416.2 206.675C416.2 206.674 416.2 206.674 416.2 206.674C416.2 206.673 416.2 206.673 416.2 206.673C416.2 206.672 416.2 206.672 416.2 206.671C416.2 206.671 416.2 206.671 416.2 206.67C416.2 206.67 416.2 206.67 416.2 206.669C416.2 206.669 416.2 206.668 416.2 206.668C416.2 206.668 416.2 206.667 416.2 206.667C416.2 206.667 416.2 206.666 416.2 206.666C416.2 206.666 416.2 206.665 416.2 206.665C416.2 206.664 416.2 206.664 416.2 206.664C416.2 206.663 416.2 206.663 416.2 206.663C416.2 206.662 416.2 206.662 416.2 206.662C416.2 206.661 416.2 206.661 416.2 206.66C416.2 206.66 416.2 206.66 416.2 206.659C416.2 206.659 416.2 206.659 416.2 206.658C416.2 206.658 416.2 206.658 416.2 206.657C416.2 206.657 416.2 206.657 416.2 206.656C416.2 206.656 416.2 206.655 416.2 206.655C416.2 206.655 416.2 206.654 416.2 206.654C416.2 206.654 416.2 206.653 416.2 206.653C416.2 206.653 416.2 206.652 416.2 206.652C416.2 206.652 416.2 206.651 416.2 206.651C416.2 206.651 416.2 206.65 416.2 206.65C416.2 206.65 416.2 206.649 416.2 206.649C416.2 206.649 416.2 206.648 416.2 206.648C416.2 206.647 416.2 206.647 416.2 206.647C416.2 206.646 416.2 206.646 416.2 206.646C416.2 206.645 416.2 206.645 416.2 206.645C416.2 206.644 416.2 206.644 416.2 206.644C416.2 206.643 416.2 206.643 416.2 206.643C416.2 206.642 416.2 206.642 416.2 206.642C416.2 206.641 416.2 206.641 416.2 206.641C416.2 206.64 416.2 206.64 416.2 206.64C416.2 206.639 416.2 206.639 416.2 206.639C416.2 206.638 416.2 206.638 416.2 206.638C416.2 206.637 416.2 206.637 416.2 206.637C416.2 206.637 416.2 206.636 416.2 206.636C416.2 206.636 416.2 206.635 416.2 206.635C416.2 206.635 416.2 206.634 416.2 206.634C416.2 206.634 416.2 206.633 416.2 206.633C416.2 206.633 416.2 206.632 416.2 206.632C416.2 206.632 416.2 206.631 416.2 206.631C416.2 206.631 416.2 206.63 416.2 206.63C416.2 206.63 416.2 206.63 416.2 206.629C416.2 206.629 416.2 206.629 416.2 206.628C416.2 206.628 416.2 206.628 416.2 206.627C416.2 206.627 416.2 206.627 416.2 206.626C416.2 206.626 416.2 206.626 416.2 206.626C416.2 206.625 416.2 206.625 416.2 206.625C416.2 206.624 416.2 206.624 416.2 206.624C416.2 206.623 416.2 206.623 416.2 206.623C416.2 206.622 416.2 206.622 416.2 206.622C416.2 206.622 416.2 206.621 416.2 206.621C416.2 206.621 416.2 206.62 416.2 206.62C416.2 206.62 416.2 206.619 416.2 206.619C416.2 206.619 416.2 206.619 416.2 206.618C416.2 206.618 416.2 206.618 416.2 206.617C416.2 206.617 416.2 206.617 416.2 206.617C416.2 206.616 416.2 206.616 416.2 206.616C416.2 206.615 416.2 206.615 416.2 206.615C416.2 206.615 416.2 206.614 416.2 206.614C416.2 206.614 416.2 206.613 416.2 206.613C416.2 206.613 416.2 206.613 416.2 206.612C416.2 206.612 416.2 206.612 416.2 206.611C416.2 206.611 416.2 206.611 416.2 206.611C416.2 206.61 416.2 206.61 416.2 206.61C416.2 206.609 416.2 206.609 416.2 206.609C416.2 206.609 416.2 206.608 416.2 206.608C416.2 206.608 416.2 206.607 416.2 206.607C416.2 206.607 416.2 206.607 416.2 206.606C416.2 206.606 416.2 206.606 416.2 206.606C416.2 206.605 416.2 206.605 416.2 206.605C416.2 206.604 416.2 206.604 416.2 206.604C416.2 206.604 416.2 206.603 416.2 206.603C416.2 206.603 416.2 206.603 416.2 206.602C416.2 206.602 416.2 206.602 416.2 206.602C416.2 206.601 416.2 206.601 416.2 206.601C416.2 206.601 416.2 206.6 416.2 206.6H406.2C406.2 206.6 406.2 206.601 406.2 206.601C406.2 206.601 406.2 206.601 406.2 206.602C406.2 206.602 406.2 206.602 406.2 206.602C406.2 206.603 406.2 206.603 406.2 206.603C406.2 206.603 406.2 206.604 406.2 206.604C406.2 206.604 406.2 206.604 406.2 206.605C406.2 206.605 406.2 206.605 406.2 206.606C406.2 206.606 406.2 206.606 406.2 206.606C406.2 206.607 406.2 206.607 406.2 206.607C406.2 206.607 406.2 206.608 406.2 206.608C406.2 206.608 406.2 206.609 406.2 206.609C406.2 206.609 406.2 206.609 406.2 206.61C406.2 206.61 406.2 206.61 406.2 206.611C406.2 206.611 406.2 206.611 406.2 206.611C406.2 206.612 406.2 206.612 406.2 206.612C406.2 206.613 406.2 206.613 406.2 206.613C406.2 206.613 406.2 206.614 406.2 206.614C406.2 206.614 406.2 206.615 406.2 206.615C406.2 206.615 406.2 206.615 406.2 206.616C406.2 206.616 406.2 206.616 406.2 206.617C406.2 206.617 406.2 206.617 406.2 206.617C406.2 206.618 406.2 206.618 406.2 206.618C406.2 206.619 406.2 206.619 406.2 206.619C406.2 206.619 406.2 206.62 406.2 206.62C406.2 206.62 406.2 206.621 406.2 206.621C406.2 206.621 406.2 206.622 406.2 206.622C406.2 206.622 406.2 206.622 406.2 206.623C406.2 206.623 406.2 206.623 406.2 206.624C406.2 206.624 406.2 206.624 406.2 206.625C406.2 206.625 406.2 206.625 406.2 206.626C406.2 206.626 406.2 206.626 406.2 206.626C406.2 206.627 406.2 206.627 406.2 206.627C406.2 206.628 406.2 206.628 406.2 206.628C406.2 206.629 406.2 206.629 406.2 206.629C406.2 206.63 406.2 206.63 406.2 206.63C406.2 206.63 406.2 206.631 406.2 206.631C406.2 206.631 406.2 206.632 406.2 206.632C406.2 206.632 406.2 206.633 406.2 206.633C406.2 206.633 406.2 206.634 406.2 206.634C406.2 206.634 406.2 206.635 406.2 206.635C406.2 206.635 406.2 206.636 406.2 206.636C406.2 206.636 406.2 206.637 406.2 206.637C406.2 206.637 406.2 206.637 406.2 206.638C406.2 206.638 406.2 206.638 406.2 206.639C406.2 206.639 406.2 206.639 406.2 206.64C406.2 206.64 406.2 206.64 406.2 206.641C406.2 206.641 406.2 206.641 406.2 206.642C406.2 206.642 406.2 206.642 406.2 206.643C406.2 206.643 406.2 206.643 406.2 206.644C406.2 206.644 406.2 206.644 406.2 206.645C406.2 206.645 406.2 206.645 406.2 206.646C406.2 206.646 406.2 206.646 406.2 206.647C406.2 206.647 406.2 206.647 406.2 206.648C406.2 206.648 406.2 206.649 406.2 206.649C406.2 206.649 406.2 206.65 406.2 206.65C406.2 206.65 406.2 206.651 406.2 206.651C406.2 206.651 406.2 206.652 406.2 206.652C406.2 206.652 406.2 206.653 406.2 206.653C406.2 206.653 406.2 206.654 406.2 206.654C406.2 206.654 406.2 206.655 406.2 206.655C406.2 206.655 406.2 206.656 406.2 206.656C406.2 206.657 406.2 206.657 406.2 206.657C406.2 206.658 406.2 206.658 406.2 206.658C406.2 206.659 406.2 206.659 406.2 206.659C406.2 206.66 406.2 206.66 406.2 206.66C406.2 206.661 406.2 206.661 406.2 206.662C406.2 206.662 406.2 206.662 406.2 206.663C406.2 206.663 406.2 206.663 406.2 206.664C406.2 206.664 406.2 206.664 406.2 206.665C406.2 206.665 406.2 206.666 406.2 206.666C406.2 206.666 406.2 206.667 406.2 206.667C406.2 206.667 406.2 206.668 406.2 206.668C406.2 206.668 406.2 206.669 406.2 206.669C406.2 206.67 406.2 206.67 406.2 206.67C406.2 206.671 406.2 206.671 406.2 206.671C406.2 206.672 406.2 206.672 406.2 206.673C406.2 206.673 406.2 206.673 406.2 206.674C406.2 206.674 406.2 206.674 406.2 206.675C406.2 206.675 406.2 206.676 406.2 206.676C406.2 206.676 406.2 206.677 406.2 206.677C406.2 206.678 406.2 206.678 406.2 206.678C406.2 206.679 406.2 206.679 406.2 206.679C406.2 206.68 406.2 206.68 406.2 206.681C406.2 206.681 406.2 206.681 406.2 206.682C406.2 206.682 406.2 206.683 406.2 206.683C406.2 206.683 406.2 206.684 406.2 206.684C406.2 206.685 406.2 206.685 406.2 206.685C406.2 206.686 406.2 206.686 406.2 206.686C406.2 206.687 406.2 206.687 406.2 206.688C406.2 206.688 406.2 206.688 406.2 206.689C406.2 206.689 406.2 206.69 406.2 206.69C406.2 206.69 406.2 206.691 406.2 206.691C406.2 206.692 406.2 206.692 406.2 206.692C406.2 206.693 406.2 206.693 406.2 206.694C406.2 206.694 406.2 206.694 406.2 206.695C406.2 206.695 406.2 206.696 406.2 206.696C406.2 206.697 406.2 206.697 406.2 206.697C406.2 206.698 406.2 206.698 406.2 206.699C406.2 206.699 406.2 206.699 406.2 206.7C406.2 206.7 406.2 206.701 406.2 206.701C406.2 206.701 406.2 206.702 406.2 206.702C406.2 206.703 406.2 206.703 406.2 206.704C406.2 206.704 406.2 206.704 406.2 206.705C406.2 206.705 406.2 206.706 406.2 206.706C406.2 206.706 406.2 206.707 406.2 206.707C406.2 206.708 406.2 206.708 406.2 206.709C406.2 206.709 406.2 206.709 406.2 206.71C406.2 206.71 406.2 206.711 406.2 206.711C406.2 206.712 406.2 206.712 406.2 206.712C406.2 206.713 406.2 206.713 406.2 206.714C406.2 206.714 406.2 206.714 406.2 206.715C406.2 206.715 406.2 206.716 406.2 206.716C406.2 206.717 406.2 206.717 406.2 206.718C406.2 206.718 406.2 206.718 406.2 206.719C406.2 206.719 406.2 206.72 406.2 206.72C406.2 206.721 406.2 206.721 406.2 206.721C406.2 206.722 406.2 206.722 406.2 206.723C406.2 206.723 406.2 206.724 406.2 206.724C406.2 206.725 406.2 206.725 406.2 206.725C406.2 206.726 406.2 206.726 406.2 206.727C406.2 206.727 406.2 206.728 406.2 206.728C406.2 206.728 406.2 206.729 406.2 206.729C406.2 206.73 406.2 206.73 406.2 206.731C406.2 206.731 406.2 206.732 406.2 206.732C406.2 206.733 406.2 206.733 406.2 206.733C406.2 206.734 406.2 206.734 406.2 206.735C406.2 206.735 406.2 206.736 406.2 206.736C406.2 206.737 406.2 206.737 406.2 206.738C406.2 206.738 406.2 206.738 406.2 206.739C406.2 206.739 406.2 206.74 406.2 206.74C406.2 206.741 406.2 206.741 406.2 206.742C406.2 206.742 406.2 206.743 406.2 206.743C406.2 206.743 406.2 206.744 406.2 206.744C406.2 206.745 406.2 206.745 406.2 206.746C406.2 206.746 406.2 206.747 406.2 206.747C406.2 206.748 406.2 206.748 406.2 206.749C406.2 206.749 406.2 206.75 406.2 206.75C406.2 206.75 406.2 206.751 406.2 206.751C406.2 206.752 406.2 206.752 406.2 206.753C406.2 206.753 406.2 206.754 406.2 206.754C406.2 206.755 406.2 206.755 406.2 206.756C406.2 206.756 406.2 206.757 406.2 206.757C406.2 206.758 406.2 206.758 406.2 206.759C406.2 206.759 406.2 206.759 406.2 206.76C406.2 206.76 406.2 206.761 406.2 206.761C406.2 206.762 406.2 206.762 406.2 206.763C406.2 206.763 406.2 206.764 406.2 206.764C406.2 206.765 406.2 206.765 406.2 206.766C406.2 206.766 406.2 206.767 406.2 206.767C406.2 206.768 406.2 206.768 406.2 206.769C406.2 206.769 406.2 206.77 406.2 206.77C406.2 206.771 406.2 206.771 406.2 206.772C406.2 206.772 406.2 206.773 406.2 206.773C406.2 206.774 406.2 206.774 406.2 206.775C406.2 206.775 406.2 206.776 406.2 206.776C406.2 206.777 406.2 206.777 406.2 206.778C406.2 206.778 406.2 206.779 406.2 206.779C406.2 206.78 406.2 206.78 406.2 206.781C406.2 206.781 406.2 206.782 406.2 206.782C406.2 206.783 406.2 206.783 406.2 206.784C406.2 206.784 406.2 206.785 406.2 206.785C406.2 206.786 406.2 206.786 406.2 206.787C406.2 206.787 406.2 206.788 406.2 206.788C406.2 206.789 406.2 206.789 406.2 206.79C406.2 206.79 406.2 206.791 406.2 206.791C406.2 206.792 406.2 206.792 406.2 206.793C406.2 206.793 406.2 206.794 406.2 206.794C406.2 206.795 406.2 206.795 406.2 206.796C406.2 206.796 406.2 206.797 406.2 206.797C406.2 206.798 406.2 206.798 406.2 206.799C406.2 206.799 406.2 206.8 406.2 206.801C406.2 206.801 406.2 206.802 406.2 206.802C406.2 206.803 406.2 206.803 406.2 206.804C406.2 206.804 406.2 206.805 406.2 206.805C406.2 206.806 406.2 206.806 406.2 206.807C406.2 206.807 406.2 206.808 406.2 206.808C406.2 206.809 406.2 206.809 406.2 206.81C406.2 206.811 406.2 206.811 406.2 206.812C406.2 206.812 406.2 206.813 406.2 206.813C406.2 206.814 406.2 206.814 406.2 206.815C406.2 206.815 406.2 206.816 406.2 206.816C406.2 206.817 406.2 206.817 406.2 206.818C406.2 206.819 406.2 206.819 406.2 206.82C406.2 206.82 406.2 206.821 406.2 206.821C406.2 206.822 406.2 206.822 406.2 206.823C406.2 206.823 406.2 206.824 406.2 206.824C406.2 206.825 406.2 206.826 406.2 206.826C406.2 206.827 406.2 206.827 406.2 206.828C406.2 206.828 406.2 206.829 406.2 206.829C406.2 206.83 406.2 206.831 406.2 206.831C406.2 206.832 406.2 206.832 406.2 206.833C406.2 206.833 406.2 206.834 406.2 206.834C406.2 206.835 406.2 206.835 406.2 206.836C406.2 206.837 406.2 206.837 406.2 206.838C406.2 206.838 406.2 206.839 406.2 206.839C406.2 206.84 406.2 206.84 406.2 206.841C406.2 206.842 406.2 206.842 406.2 206.843C406.2 206.843 406.2 206.844 406.2 206.844C406.2 206.845 406.2 206.846 406.2 206.846C406.2 206.847 406.2 206.847 406.2 206.848C406.2 206.848 406.2 206.849 406.2 206.85C406.2 206.85 406.2 206.851 406.2 206.851C406.2 206.852 406.2 206.852 406.2 206.853C406.2 206.853 406.2 206.854 406.2 206.855C406.2 206.855 406.2 206.856 406.2 206.856C406.2 206.857 406.2 206.857 406.2 206.858C406.2 206.859 406.2 206.859 406.2 206.86C406.2 206.86 406.2 206.861 406.2 206.862C406.2 206.862 406.2 206.863 406.2 206.863C406.2 206.864 406.2 206.864 406.2 206.865C406.2 206.866 406.2 206.866 406.2 206.867C406.2 206.867 406.2 206.868 406.2 206.868C406.2 206.869 406.2 206.87 406.2 206.87C406.2 206.871 406.2 206.871 406.2 206.872C406.2 206.873 406.2 206.873 406.2 206.874C406.2 206.874 406.2 206.875 406.2 206.876C406.2 206.876 406.2 206.877 406.2 206.877C406.2 206.878 406.2 206.878 406.2 206.879C406.2 206.88 406.2 206.88 406.2 206.881C406.2 206.881 406.2 206.882 406.2 206.883C406.2 206.883 406.2 206.884 406.2 206.884C406.2 206.885 406.2 206.886 406.2 206.886C406.2 206.887 406.2 206.887 406.2 206.888C406.2 206.889 406.2 206.889 406.2 206.89C406.2 206.89 406.2 206.891 406.2 206.892C406.2 206.892 406.2 206.893 406.2 206.893C406.2 206.894 406.2 206.895 406.2 206.895C406.2 206.896 406.2 206.896 406.2 206.897C406.2 206.898 406.2 206.898 406.2 206.899C406.2 206.9 406.2 206.9 406.2 206.901C406.2 206.901 406.2 206.902 406.2 206.903C406.2 206.903 406.2 206.904 406.2 206.904C406.2 206.905 406.2 206.906 406.2 206.906C406.2 206.907 406.2 206.908 406.2 206.908C406.2 206.909 406.2 206.909 406.2 206.91C406.2 206.911 406.2 206.911 406.2 206.912C406.2 206.912 406.2 206.913 406.2 206.914C406.2 206.914 406.2 206.915 406.2 206.916C406.2 206.916 406.2 206.917 406.2 206.917C406.2 206.918 406.2 206.919 406.2 206.919C406.2 206.92 406.2 206.921 406.2 206.921C406.2 206.922 406.2 206.922 406.2 206.923C406.2 206.924 406.2 206.924 406.2 206.925C406.2 206.926 406.2 206.926 406.2 206.927C406.2 206.928 406.2 206.928 406.2 206.929C406.2 206.929 406.2 206.93 406.2 206.931C406.2 206.931 406.2 206.932 406.2 206.933C406.2 206.933 406.2 206.934 406.2 206.935C406.2 206.935 406.2 206.936 406.2 206.936C406.2 206.937 406.2 206.938 406.2 206.938C406.2 206.939 406.2 206.94 406.2 206.94C406.2 206.941 406.2 206.942 406.2 206.942C406.2 206.943 406.2 206.944 406.2 206.944C406.2 206.945 406.2 206.945 406.2 206.946C406.2 206.947 406.2 206.947 406.2 206.948C406.2 206.949 406.2 206.949 406.2 206.95C406.2 206.951 406.2 206.951 406.2 206.952C406.2 206.953 406.2 206.953 406.2 206.954C406.2 206.955 406.2 206.955 406.2 206.956C406.2 206.957 406.2 206.957 406.2 206.958C406.2 206.959 406.2 206.959 406.2 206.96C406.2 206.96 406.2 206.961 406.2 206.962C406.2 206.962 406.2 206.963 406.2 206.964C406.2 206.964 406.2 206.965 406.2 206.966C406.2 206.966 406.2 206.967 406.2 206.968C406.2 206.968 406.2 206.969 406.2 206.97C406.2 206.97 406.2 206.971 406.2 206.972C406.2 206.972 406.2 206.973 406.2 206.974C406.2 206.974 406.2 206.975 406.2 206.976C406.2 206.976 406.2 206.977 406.2 206.978C406.2 206.978 406.2 206.979 406.2 206.98C406.2 206.98 406.2 206.981 406.2 206.982C406.2 206.983 406.2 206.983 406.2 206.984C406.2 206.985 406.2 206.985 406.2 206.986C406.2 206.987 406.2 206.987 406.2 206.988C406.2 206.989 406.2 206.989 406.2 206.99C406.2 206.991 406.2 206.991 406.2 206.992C406.2 206.993 406.2 206.993 406.2 206.994C406.2 206.995 406.2 206.995 406.2 206.996C406.2 206.997 406.2 206.997 406.2 206.998C406.2 206.999 406.2 207 406.2 207C406.2 207.001 406.2 207.002 406.2 207.002C406.2 207.003 406.2 207.004 406.2 207.004C406.2 207.005 406.2 207.006 406.2 207.006C406.2 207.007 406.2 207.008 406.2 207.009C406.2 207.009 406.2 207.01 406.2 207.011C406.2 207.011 406.2 207.012 406.2 207.013C406.2 207.013 406.2 207.014 406.2 207.015C406.2 207.016 406.2 207.016 406.2 207.017C406.2 207.018 406.2 207.018 406.2 207.019C406.2 207.02 406.2 207.02 406.2 207.021C406.2 207.022 406.2 207.023 406.2 207.023C406.2 207.024 406.2 207.025 406.2 207.025C406.2 207.026 406.2 207.027 406.2 207.028C406.2 207.028 406.2 207.029 406.2 207.03C406.2 207.03 406.2 207.031 406.2 207.032C406.2 207.033 406.2 207.033 406.2 207.034C406.2 207.035 406.2 207.035 406.2 207.036C406.2 207.037 406.2 207.038 406.2 207.038C406.2 207.039 406.2 207.04 406.2 207.04C406.2 207.041 406.2 207.042 406.2 207.043C406.2 207.043 406.2 207.044 406.2 207.045C406.2 207.045 406.2 207.046 406.2 207.047C406.2 207.048 406.2 207.048 406.2 207.049C406.2 207.05 406.2 207.05 406.2 207.051C406.2 207.052 406.2 207.053 406.2 207.053C406.2 207.054 406.2 207.055 406.2 207.056C406.2 207.056 406.2 207.057 406.2 207.058C406.2 207.058 406.2 207.059 406.2 207.06C406.2 207.061 406.2 207.061 406.2 207.062C406.2 207.063 406.2 207.064 406.2 207.064C406.2 207.065 406.2 207.066 406.2 207.067C406.2 207.067 406.2 207.068 406.2 207.069C406.2 207.07 406.2 207.07 406.2 207.071C406.2 207.072 406.2 207.072 406.2 207.073C406.2 207.074 406.2 207.075 406.2 207.075C406.2 207.076 406.2 207.077 406.2 207.078C406.2 207.078 406.2 207.079 406.2 207.08C406.2 207.081 406.2 207.081 406.2 207.082C406.2 207.083 406.2 207.084 406.2 207.084C406.2 207.085 406.2 207.086 406.2 207.087C406.2 207.087 406.2 207.088 406.2 207.089C406.2 207.09 406.2 207.09 406.2 207.091C406.2 207.092 406.2 207.093 406.2 207.093C406.2 207.094 406.2 207.095 406.2 207.096C406.2 207.096 406.2 207.097 406.2 207.098C406.2 207.099 406.2 207.099 406.2 207.1C406.2 207.101 406.2 207.102 406.2 207.102C406.2 207.103 406.2 207.104 406.2 207.105C406.2 207.106 406.2 207.106 406.2 207.107C406.2 207.108 406.2 207.109 406.2 207.109C406.2 207.11 406.2 207.111 406.2 207.112C406.2 207.112 406.2 207.113 406.2 207.114C406.2 207.115 406.2 207.115 406.2 207.116C406.2 207.117 406.2 207.118 406.2 207.119C406.2 207.119 406.2 207.12 406.2 207.121C406.2 207.122 406.2 207.122 406.2 207.123C406.2 207.124 406.2 207.125 406.2 207.126C406.2 207.126 406.2 207.127 406.2 207.128C406.2 207.129 406.2 207.129 406.2 207.13C406.2 207.131 406.2 207.132 406.2 207.133C406.2 207.133 406.2 207.134 406.2 207.135C406.2 207.136 406.2 207.136 406.2 207.137C406.2 207.138 406.2 207.139 406.2 207.14C406.2 207.14 406.2 207.141 406.2 207.142C406.2 207.143 406.2 207.144 406.2 207.144C406.2 207.145 406.2 207.146 406.2 207.147C406.2 207.147 406.2 207.148 406.2 207.149C406.2 207.15 406.2 207.151 406.2 207.151C406.2 207.152 406.2 207.153 406.2 207.154C406.2 207.155 406.2 207.155 406.2 207.156C406.2 207.157 406.2 207.158 406.2 207.159C406.2 207.159 406.2 207.16 406.2 207.161C406.2 207.162 406.2 207.163 406.2 207.163C406.2 207.164 406.2 207.165 406.2 207.166C406.2 207.167 406.2 207.167 406.2 207.168C406.2 207.169 406.2 207.17 406.2 207.171C406.2 207.171 406.2 207.172 406.2 207.173C406.2 207.174 406.2 207.175 406.2 207.175C406.2 207.176 406.2 207.177 406.2 207.178C406.2 207.179 406.2 207.18 406.2 207.18C406.2 207.181 406.2 207.182 406.2 207.183C406.2 207.184 406.2 207.184 406.2 207.185C406.2 207.186 406.2 207.187 406.2 207.188C406.2 207.188 406.2 207.189 406.2 207.19C406.2 207.191 406.2 207.192 406.2 207.193C406.2 207.193 406.2 207.194 406.2 207.195C406.2 207.196 406.2 207.197 406.2 207.197C406.2 207.198 406.2 207.199 406.2 207.2C406.2 207.201 406.2 207.202 406.2 207.202C406.2 207.203 406.2 207.204 406.2 207.205C406.2 207.206 406.2 207.207 406.2 207.207C406.2 207.208 406.2 207.209 406.2 207.21C406.2 207.211 406.2 207.212 406.2 207.212C406.2 207.213 406.2 207.214 406.2 207.215C406.2 207.216 406.2 207.216 406.2 207.217C406.2 207.218 406.2 207.219 406.2 207.22C406.2 207.221 406.2 207.222 406.2 207.222C406.2 207.223 406.2 207.224 406.2 207.225C406.2 207.226 406.2 207.227 406.2 207.227C406.2 207.228 406.2 207.229 406.2 207.23C406.2 207.231 406.2 207.232 406.2 207.232C406.2 207.233 406.2 207.234 406.2 207.235C406.2 207.236 406.2 207.237 406.2 207.238C406.2 207.238 406.2 207.239 406.2 207.24C406.2 207.241 406.2 207.242 406.2 207.243C406.2 207.243 406.2 207.244 406.2 207.245C406.2 207.246 406.2 207.247 406.2 207.248C406.2 207.249 406.2 207.249 406.2 207.25C406.2 207.251 406.2 207.252 406.2 207.253C406.2 207.254 406.2 207.255 406.2 207.255C406.2 207.256 406.2 207.257 406.2 207.258C406.2 207.259 406.2 207.26 406.2 207.261C406.2 207.261 406.2 207.262 406.2 207.263C406.2 207.264 406.2 207.265 406.2 207.266C406.2 207.267 406.2 207.267 406.2 207.268C406.2 207.269 406.2 207.27 406.2 207.271C406.2 207.272 406.2 207.273 406.2 207.273C406.2 207.274 406.2 207.275 406.2 207.276C406.2 207.277 406.2 207.278 406.2 207.279C406.2 207.28 406.2 207.28 406.2 207.281C406.2 207.282 406.2 207.283 406.2 207.284C406.2 207.285 406.2 207.286 406.2 207.287C406.2 207.287 406.2 207.288 406.2 207.289C406.2 207.29 406.2 207.291 406.2 207.292C406.2 207.293 406.2 207.294 406.2 207.294C406.2 207.295 406.2 207.296 406.2 207.297C406.2 207.298 406.2 207.299 406.2 207.3C406.2 207.301 406.2 207.302 406.2 207.302C406.2 207.303 406.2 207.304 406.2 207.305C406.2 207.306 406.2 207.307 406.2 207.308C406.2 207.309 406.2 207.309 406.2 207.31C406.2 207.311 406.2 207.312 406.2 207.313C406.2 207.314 406.2 207.315 406.2 207.316C406.2 207.317 406.2 207.318 406.2 207.318C406.2 207.319 406.2 207.32 406.2 207.321C406.2 207.322 406.2 207.323 406.2 207.324C406.2 207.325 406.2 207.326 406.2 207.326C406.2 207.327 406.2 207.328 406.2 207.329C406.2 207.33 406.2 207.331 406.2 207.332C406.2 207.333 406.2 207.334 406.2 207.335C406.2 207.335 406.2 207.336 406.2 207.337C406.2 207.338 406.2 207.339 406.2 207.34C406.2 207.341 406.2 207.342 406.2 207.343C406.2 207.344 406.2 207.345 406.2 207.345C406.2 207.346 406.2 207.347 406.2 207.348C406.2 207.349 406.2 207.35 406.2 207.351C406.2 207.352 406.2 207.353 406.2 207.354C406.2 207.355 406.2 207.355 406.2 207.356C406.2 207.357 406.2 207.358 406.2 207.359C406.2 207.36 406.2 207.361 406.2 207.362C406.2 207.363 406.2 207.364 406.2 207.365C406.2 207.366 406.2 207.366 406.2 207.367C406.2 207.368 406.2 207.369 406.2 207.37C406.2 207.371 406.2 207.372 406.2 207.373C406.2 207.374 406.2 207.375 406.2 207.376C406.2 207.377 406.2 207.378 406.2 207.378C406.2 207.379 406.2 207.38 406.2 207.381C406.2 207.382 406.2 207.383 406.2 207.384C406.2 207.385 406.2 207.386 406.2 207.387C406.2 207.388 406.2 207.389 406.2 207.39C406.2 207.391 406.2 207.392 406.2 207.392C406.2 207.393 406.2 207.394 406.2 207.395C406.2 207.396 406.2 207.397 406.2 207.398C406.2 207.399 406.2 207.4 406.2 207.401C406.2 207.402 406.2 207.403 406.2 207.404C406.2 207.405 406.2 207.406 406.2 207.407C406.2 207.407 406.2 207.408 406.2 207.409C406.2 207.41 406.2 207.411 406.2 207.412C406.2 207.413 406.2 207.414 406.2 207.415C406.2 207.416 406.2 207.417 406.2 207.418C406.2 207.419 406.2 207.42 406.2 207.421C406.2 207.422 406.2 207.423 406.2 207.424C406.2 207.425 406.2 207.425 406.2 207.426C406.2 207.427 406.2 207.428 406.2 207.429C406.2 207.43 406.2 207.431 406.2 207.432C406.2 207.433 406.2 207.434 406.2 207.435C406.2 207.436 406.2 207.437 406.2 207.438C406.2 207.439 406.2 207.44 406.2 207.441C406.2 207.442 406.2 207.443 406.2 207.444C406.2 207.445 406.2 207.446 406.2 207.447C406.2 207.448 406.2 207.449 406.2 207.449C406.2 207.45 406.2 207.451 406.2 207.452C406.2 207.453 406.2 207.454 406.2 207.455C406.2 207.456 406.2 207.457 406.2 207.458C406.2 207.459 406.2 207.46 406.2 207.461C406.2 207.462 406.2 207.463 406.2 207.464C406.2 207.465 406.2 207.466 406.2 207.467C406.2 207.468 406.2 207.469 406.2 207.47C406.2 207.471 406.2 207.472 406.2 207.473C406.2 207.474 406.2 207.475 406.2 207.476C406.2 207.477 406.2 207.478 406.2 207.479C406.2 207.48 406.2 207.481 406.2 207.482C406.2 207.483 406.2 207.484 406.2 207.485C406.2 207.486 406.2 207.487 406.2 207.488C406.2 207.488 406.2 207.489 406.2 207.49C406.2 207.491 406.2 207.492 406.2 207.493C406.2 207.494 406.2 207.495 406.2 207.496C406.2 207.497 406.2 207.498 406.2 207.499C406.2 207.5 406.2 207.501 406.2 207.502C406.2 207.503 406.2 207.504 406.2 207.505C406.2 207.506 406.2 207.507 406.2 207.508C406.2 207.509 406.2 207.51 406.2 207.511C406.2 207.512 406.2 207.513 406.2 207.514C406.2 207.515 406.2 207.516 406.2 207.517C406.2 207.518 406.2 207.519 406.2 207.52C406.2 207.521 406.2 207.522 406.2 207.523C406.2 207.524 406.2 207.525 406.2 207.526C406.2 207.527 406.2 207.528 406.2 207.529C406.2 207.53 406.2 207.531 406.2 207.532C406.2 207.533 406.2 207.534 406.2 207.535C406.2 207.536 406.2 207.537 406.2 207.538C406.2 207.539 406.2 207.54 406.2 207.541C406.2 207.542 406.2 207.543 406.2 207.544C406.2 207.546 406.2 207.547 406.2 207.548C406.2 207.549 406.2 207.55 406.2 207.551C406.2 207.552 406.2 207.553 406.2 207.554C406.2 207.555 406.2 207.556 406.2 207.557C406.2 207.558 406.2 207.559 406.2 207.56C406.2 207.561 406.2 207.562 406.2 207.563C406.2 207.564 406.2 207.565 406.2 207.566C406.2 207.567 406.2 207.568 406.2 207.569C406.2 207.57 406.2 207.571 406.2 207.572C406.2 207.573 406.2 207.574 406.2 207.575C406.2 207.576 406.2 207.577 406.2 207.578C406.2 207.579 406.2 207.58 406.2 207.581C406.2 207.582 406.2 207.583 406.2 207.584C406.2 207.585 406.2 207.587 406.2 207.588C406.2 207.589 406.2 207.59 406.2 207.591C406.2 207.592 406.2 207.593 406.2 207.594C406.2 207.595 406.2 207.596 406.2 207.597C406.2 207.598 406.2 207.599 406.2 207.6H416.2ZM416.2 206.6V206H406.2V206.6H416.2ZM411.2 201H365V211H411.2V201ZM360 206V232.8H370V206H360ZM365 227.8H325V237.8H365V227.8ZM330 232.8V163H320V232.8H330ZM325 158H317.4V168H325V158ZM322.4 163V148.8H312.4V163H322.4ZM313.276 145.972L303.676 159.972L311.924 165.628L321.524 151.628L313.276 145.972ZM307.045 167.743L321.445 169.943L322.955 160.057L308.555 157.857L307.045 167.743ZM317.338 163.833C313.323 180.564 308.312 203.148 302.308 231.566L312.092 233.634C318.088 205.252 323.077 182.769 327.062 166.167L317.338 163.833ZM308.26 227.714L265.86 218.514L263.74 228.286L306.14 237.486L308.26 227.714ZM269.465 225.2C272.449 217.468 274.904 210.108 276.822 203.124L267.178 200.476C265.362 207.092 263.017 214.132 260.135 221.6L269.465 225.2ZM276.797 203.211C278.822 196.324 281.24 187.323 284.047 176.226L274.353 173.774C271.56 184.811 269.178 193.676 267.203 200.389L276.797 203.211ZM284.051 176.213C284.584 174.079 285.184 171.679 285.851 169.013L276.149 166.587C275.483 169.254 274.883 171.654 274.349 173.787L284.051 176.213ZM285.851 169.013C286.513 166.365 287.242 163.515 288.038 160.462L278.362 157.938C277.558 161.019 276.821 163.902 276.149 166.587L285.851 169.013ZM282.461 164.145L299.861 166.745L301.339 156.855L283.939 154.255L282.461 164.145ZM302.91 157.365C296.358 153.953 290.101 151.131 284.144 148.914L280.656 158.286C286.165 160.336 292.042 162.98 298.29 166.235L302.91 157.365ZM284.276 148.965C278.417 146.594 272.044 144.588 265.167 142.938L262.833 152.662C269.29 154.212 275.183 156.073 280.524 158.235L284.276 148.965ZM268.116 150.639L288.116 121.639L279.884 115.961L259.884 144.961L268.116 150.639ZM282.731 123.636C293.039 126.342 303.869 130.42 315.226 135.903L319.574 126.897C307.731 121.18 296.294 116.858 285.269 113.964L282.731 123.636ZM322.4 131.4V128.4H312.4V131.4H322.4ZM317.4 133.4H326.4V123.4H317.4V133.4ZM331.4 128.4V100.6H321.4V128.4H331.4ZM322.152 97.9632L307.752 121.163L316.248 126.437L330.648 103.237L322.152 97.9632ZM313.784 119.129C294.504 111.765 278.58 106.427 266.062 103.162L263.538 112.838C275.554 115.973 291.096 121.168 310.216 128.471L313.784 119.129ZM268.872 110.901L290.672 80.3011L282.528 74.4988L260.728 105.099L268.872 110.901ZM285.089 82.1661C290.357 83.8365 298.338 86.8406 309.114 91.2305L312.886 81.9695C302.062 77.5594 293.777 74.4302 288.111 72.6338L285.089 82.1661ZM309.185 91.2589L324.585 97.2589L328.215 87.9411L312.815 81.9411L309.185 91.2589ZM331.4 92.6V81.6H321.4V92.6H331.4ZM326.4 86.6H453.2V76.6H326.4V86.6ZM448.2 81.6V128.4H458.2V81.6H448.2ZM453.2 133.4H459.2V123.4H453.2V133.4ZM413 101.4H366.2V111.4H413V101.4ZM361.2 106.4V128.4H371.2V106.4H361.2ZM366.2 133.4H371V123.4H366.2V133.4ZM376 128.4V110H366V128.4H376ZM371 115H413V105H371V115ZM418 110V106.4H408V110H418ZM396 125V128.4H406V125H396ZM401 133.4H413V123.4H401V133.4ZM418 128.4V125H408V128.4H418ZM413 120H401V130H413V120ZM422 152.6V149.2H412V152.6H422ZM417 144.2H360.8V154.2H417V144.2ZM355.8 149.2V152.6H365.8V149.2H355.8ZM360.8 157.6H417V147.6H360.8V157.6ZM411.2 167.2H365V177.2H411.2V167.2ZM360 172.2V175.4H370V172.2H360ZM365 180.4H411.2V170.4H365V180.4ZM416.2 175.4V172.2H406.2V175.4H416.2ZM360 189V192.4H370V189H360ZM365 197.4H411.2V187.4H365V197.4ZM416.2 192.4V189H406.2V192.4H416.2ZM411.2 184H365V194H411.2V184Z" fill="#8B0808"/>
</svg>
