<svg width="288" height="417" viewBox="0 0 288 417" fill="none" xmlns="http://www.w3.org/2000/svg">
<path d="M283.392 221.104H288.392V216.104H283.392V221.104ZM283.392 279.856V284.856H288.392V279.856H283.392ZM179.424 279.856V274.856H174.424V279.856H179.424ZM179.424 336.016V341.016H184.424V336.016H179.424ZM108.576 336.016H103.576V341.016H108.576V336.016ZM108.576 279.856H113.576V274.856H108.576V279.856ZM4.608 279.856H-0.392V284.856H4.608V279.856ZM4.608 221.104V216.104H-0.392V221.104H4.608ZM38.88 221.104V226.104H44.8158L43.8073 220.254L38.88 221.104ZM34.56 186.832L34.3469 181.837L29.1519 182.058L29.5767 187.24L34.56 186.832ZM95.328 184.24L100.326 184.084L100.168 179.029L95.1149 179.245L95.328 184.24ZM97.056 221.104L92.0657 221.416L92.3587 226.104H97.056V221.104ZM108.576 221.104V226.104H113.576V221.104H108.576ZM108.576 174.448H113.576V169.448H108.576V174.448ZM16.992 174.448H11.992V179.448H16.992V174.448ZM16.992 120.016V115.016H11.992V120.016H16.992ZM271.008 120.016H276.008V115.016H271.008V120.016ZM271.008 174.448V179.448H276.008V174.448H271.008ZM179.424 174.448V169.448H174.424V174.448H179.424ZM179.424 221.104H174.424V226.104H179.424V221.104ZM190.656 221.104V226.104H195.334L195.645 221.437L190.656 221.104ZM192.672 184.24L192.885 179.245L187.917 179.033L187.678 183.999L192.672 184.24ZM253.44 186.832L258.416 187.321L258.933 182.062L253.653 181.837L253.44 186.832ZM249.12 221.104L244.179 220.337L243.284 226.104H249.12V221.104ZM278.392 221.104V279.856H288.392V221.104H278.392ZM283.392 274.856H179.424V284.856H283.392V274.856ZM174.424 279.856V336.016H184.424V279.856H174.424ZM179.424 331.016H108.576V341.016H179.424V331.016ZM113.576 336.016V279.856H103.576V336.016H113.576ZM108.576 274.856H4.608V284.856H108.576V274.856ZM9.608 279.856V221.104H-0.392V279.856H9.608ZM4.608 226.104H38.88V216.104H4.608V226.104ZM43.8073 220.254C41.9135 209.27 40.4917 197.994 39.5433 186.424L29.5767 187.24C30.5483 199.094 32.0065 210.666 33.9527 221.954L43.8073 220.254ZM34.7731 191.827L95.5411 189.235L95.1149 179.245L34.3469 181.837L34.7731 191.827ZM90.3305 184.396C90.7161 196.736 91.2945 209.076 92.0657 221.416L102.046 220.792C101.282 208.556 100.708 196.32 100.326 184.084L90.3305 184.396ZM97.056 226.104H108.576V216.104H97.056V226.104ZM113.576 221.104V174.448H103.576V221.104H113.576ZM108.576 169.448H16.992V179.448H108.576V169.448ZM21.992 174.448V120.016H11.992V174.448H21.992ZM16.992 125.016H271.008V115.016H16.992V125.016ZM266.008 120.016V174.448H276.008V120.016H266.008ZM271.008 169.448H179.424V179.448H271.008V169.448ZM174.424 174.448V221.104H184.424V174.448H174.424ZM179.424 226.104H190.656V216.104H179.424V226.104ZM195.645 221.437C196.224 212.751 196.898 200.426 197.666 184.481L187.678 183.999C186.91 199.926 186.24 212.177 185.667 220.771L195.645 221.437ZM192.459 189.235L253.227 191.827L253.653 181.837L192.885 179.245L192.459 189.235ZM248.464 186.343C247.321 197.966 245.892 209.297 244.179 220.337L254.061 221.871C255.804 210.639 257.255 199.122 258.416 187.321L248.464 186.343ZM249.12 226.104H283.392V216.104H249.12V226.104Z" fill="white"/>
</svg>
