<svg width="228" height="353" viewBox="0 0 228 353" fill="none" xmlns="http://www.w3.org/2000/svg">
<path fill-rule="evenodd" clip-rule="evenodd" d="M227.48 0H25.21H20.21V5V83.83V88.83H25.21H164.67H169.67V93.83V159.97V164.97H164.67H150.87C149.721 146.583 148.835 128.195 148.213 109.808C148.156 108.142 148.102 106.476 148.05 104.81L148.049 104.81L143.054 105.023L53.8793 108.827L48.88 109.04C49.0165 110.706 49.159 112.368 49.3074 114.026C50.7064 129.658 52.6338 144.973 55.0896 159.97C55.3632 161.641 55.6433 163.307 55.93 164.97H50.8568H5H0V169.97V255.85V260.85H5H164.67H169.67V265.85V347.5V352.5H174.67H227.48V347.5H174.67V260.85V255.85H169.67H5V169.97H55.93H61.8658L60.8573 164.12C58.0337 147.743 55.8503 130.974 54.3084 113.813L143.217 110.021C143.841 128.441 144.728 146.862 145.88 165.282L146.173 169.97H150.87H169.67H174.67V164.97V88.83V83.83H169.67H25.21V5H227.48V0Z" fill="white"/>
</svg>
