<svg width="289" height="687" viewBox="0 0 289 687" fill="none" xmlns="http://www.w3.org/2000/svg">
<path d="M283.392 221.104V279.856H179.424V336.016H108.576V279.856H4.608V221.104H38.88C36.96 209.968 35.52 198.544 34.56 186.832L95.328 184.24C95.712 196.528 96.288 208.816 97.056 221.104H108.576V174.448H16.992V120.016H271.008V174.448H179.424V221.104H190.656C191.232 212.464 191.904 200.176 192.672 184.24L253.44 186.832C252.288 198.544 250.848 209.968 249.12 221.104H283.392Z" fill="#8B0808"/>
<path d="M283.968 454.816V504.64H272.736V579.232C272.736 586.528 270.912 592.096 267.264 595.936C263.808 599.584 256.8 602.272 246.24 604C235.872 605.728 220.032 606.592 198.72 606.592C196.8 598.336 194.88 591.712 192.96 586.72C191.232 581.536 188.256 576.256 184.032 570.88C188.832 571.072 194.496 571.168 201.024 571.168C207.552 571.168 211.488 570.976 212.832 570.592C214.368 570.208 215.04 569.632 214.848 568.864C214.848 568.096 214.848 567.616 214.848 567.424V566.56H148.32V605.152H90.72V504.64H79.776V484.192L65.952 504.352L86.688 507.52C80.928 531.52 73.728 563.968 65.088 604.864L4.032 591.616C8.256 580.672 11.712 570.304 14.4 560.512C17.28 550.72 20.736 537.856 24.768 521.92C25.536 518.848 26.4 515.392 27.36 511.552C28.32 507.712 29.376 503.584 30.528 499.168L55.584 502.912C46.368 498.112 37.632 494.176 29.376 491.104C21.312 487.84 12.48 485.056 2.88 482.752L31.68 440.992C47.04 445.024 63.072 451.072 79.776 459.136V454.816H92.736V414.784L72 448.192C44.352 437.632 21.696 430.048 4.032 425.44L35.424 381.376C43.296 383.872 55.008 388.288 70.56 394.624L92.736 403.264V387.424H275.328V454.816H283.968ZM217.44 423.136H150.048V454.816H156.96V428.32H217.44V423.136ZM200.16 449.92V454.816H217.44V449.92H200.16ZM223.2 489.664V484.768H142.272V489.664H223.2ZM214.848 517.888H148.32V522.496H214.848V517.888ZM148.32 542.08V546.976H214.848V542.08H148.32Z" fill="#8B0808"/>
</svg>
