<svg width="103" height="65" viewBox="0 0 103 65" fill="none" xmlns="http://www.w3.org/2000/svg">
<path d="M44.28 34.36V43.54H28.035V52.315H16.965V43.54H0.72V34.36H6.075C5.775 32.62 5.55 30.835 5.4 29.005L14.895 28.6C14.955 30.52 15.045 32.44 15.165 34.36H16.965V27.07H2.655V18.565H42.345V27.07H28.035V34.36H29.79C29.88 33.01 29.985 31.09 30.105 28.6L39.6 29.005C39.42 30.835 39.195 32.62 38.925 34.36H44.28Z" fill="#8B0808"/>
<path d="M102.37 28.69V36.475H100.615V48.13C100.615 49.27 100.33 50.14 99.76 50.74C99.22 51.31 98.125 51.73 96.475 52C94.855 52.27 92.38 52.405 89.05 52.405C88.75 51.115 88.45 50.08 88.15 49.3C87.88 48.49 87.415 47.665 86.755 46.825C87.505 46.855 88.39 46.87 89.41 46.87C90.43 46.87 91.045 46.84 91.255 46.78C91.495 46.72 91.6 46.63 91.57 46.51C91.57 46.39 91.57 46.315 91.57 46.285V46.15H81.175V52.18H72.175V36.475H70.465V33.28L68.305 36.43L71.545 36.925C70.645 40.675 69.52 45.745 68.17 52.135L58.63 50.065C59.29 48.355 59.83 46.735 60.25 45.205C60.7 43.675 61.24 41.665 61.87 39.175C61.99 38.695 62.125 38.155 62.275 37.555C62.425 36.955 62.59 36.31 62.77 35.62L66.685 36.205C65.245 35.455 63.88 34.84 62.59 34.36C61.33 33.85 59.95 33.415 58.45 33.055L62.95 26.53C65.35 27.16 67.855 28.105 70.465 29.365V28.69H72.49V22.435L69.25 27.655C64.93 26.005 61.39 24.82 58.63 24.1L63.535 17.215C64.765 17.605 66.595 18.295 69.025 19.285L72.49 20.635V18.16H101.02V28.69H102.37ZM91.975 23.74H81.445V28.69H82.525V24.55H91.975V23.74ZM89.275 27.925V28.69H91.975V27.925H89.275ZM92.875 34.135V33.37H80.23V34.135H92.875ZM91.57 38.545H81.175V39.265H91.57V38.545ZM81.175 42.325V43.09H91.57V42.325H81.175Z" fill="#8B0808"/>
</svg>
