<svg width="74" height="57" viewBox="0 0 74 57" fill="none" xmlns="http://www.w3.org/2000/svg">
<path d="M72.4556 8.75946C72.0343 7.06327 71.2084 5.51645 70.0605 4.2738C68.9125 3.03114 67.4828 2.13625 65.9145 1.67867C60.1415 3.40619e-07 37 0 37 0C37 0 13.8585 -3.40619e-07 8.08549 1.66974C6.51646 2.12584 5.08605 3.02023 3.93791 4.26311C2.78976 5.506 1.9643 7.05361 1.54442 8.75053C-3.15053e-07 15.0009 0 28.0374 0 28.0374C0 28.0374 -3.15053e-07 41.0739 1.54442 47.3154C2.39509 50.762 4.9058 53.4765 8.08549 54.3962C13.8585 56.0749 37 56.0749 37 56.0749C37 56.0749 60.1415 56.0749 65.9145 54.3962C69.1025 53.4765 71.6049 50.762 72.4556 47.3154C74 41.0739 74 28.0374 74 28.0374C74 28.0374 74 15.0009 72.4556 8.75946ZM29.6496 40.0024V16.0724L48.8103 27.9481L29.6496 40.0024Z" fill="#AE1818"/>
</svg>
