<svg width="74" height="80" viewBox="0 0 74 80" fill="none" xmlns="http://www.w3.org/2000/svg">
<path d="M71.04 0H2.96C1.32275 0 0 1.4264 0 3.19195V76.6069C0 78.3724 1.32275 79.7988 2.96 79.7988H71.04C72.6773 79.7988 74 78.3724 74 76.6069V3.19195C74 1.4264 72.6773 0 71.04 0ZM62.493 23.2913H56.5823C51.948 23.2913 51.0508 25.6653 51.0508 29.1565V36.8471H62.1138L60.6708 48.8868H51.0508V79.7988H39.516V48.8967H29.8682V36.8471H39.516V27.9695C39.516 17.6655 45.3528 12.0496 53.8813 12.0496C57.9698 12.0496 61.4755 12.3788 62.5023 12.5284V23.2913H62.493Z" fill="#AE1818"/>
</svg>
