<svg width="288" height="417" viewBox="0 0 288 417" fill="none" xmlns="http://www.w3.org/2000/svg">
<path d="M283.968 184.816H288.968V179.816H283.968V184.816ZM283.968 234.64V239.64H288.968V234.64H283.968ZM272.736 234.64V229.64H267.736V234.64H272.736ZM267.264 325.936L263.639 322.492L263.634 322.497L267.264 325.936ZM246.24 334L245.433 329.066L245.425 329.067L245.418 329.068L246.24 334ZM198.72 336.592L193.85 337.725L194.749 341.592H198.72V336.592ZM192.96 316.72L188.217 318.301L188.253 318.409L188.293 318.515L192.96 316.72ZM184.032 300.88L184.232 295.884L173.408 295.451L180.1 303.969L184.032 300.88ZM212.832 300.592L211.619 295.741L211.538 295.762L211.458 295.784L212.832 300.592ZM214.848 298.864H209.848V299.48L209.997 300.077L214.848 298.864ZM214.848 296.56H219.848V291.56H214.848V296.56ZM148.32 296.56V291.56H143.32V296.56H148.32ZM148.32 335.152V340.152H153.32V335.152H148.32ZM90.72 335.152H85.72V340.152H90.72V335.152ZM90.72 234.64H95.72V229.64H90.72V234.64ZM79.776 234.64H74.776V239.64H79.776V234.64ZM79.776 214.192H84.776V198.059L75.6524 211.364L79.776 214.192ZM65.952 234.352L61.8284 231.524L57.3249 238.092L65.1969 239.295L65.952 234.352ZM86.688 237.52L91.5499 238.687L92.8191 233.399L87.4431 232.577L86.688 237.52ZM65.088 334.864L64.0278 339.75L68.9408 340.816L69.98 335.898L65.088 334.864ZM4.032 321.616L-0.632616 319.816L-2.73547 325.264L2.97177 326.502L4.032 321.616ZM14.4 290.512L9.60317 289.101L9.59037 289.145L9.57837 289.188L14.4 290.512ZM24.768 251.92L29.6153 253.146L29.617 253.14L29.6187 253.133L24.768 251.92ZM27.36 241.552L32.2107 242.765H32.2107L27.36 241.552ZM30.528 229.168L31.2669 224.223L26.8239 223.559L25.6899 227.906L30.528 229.168ZM55.584 232.912L54.8451 237.857L57.8937 228.477L55.584 232.912ZM29.376 221.104L27.5 225.739L27.5658 225.765L27.6323 225.79L29.376 221.104ZM2.88 212.752L-1.23606 209.913L-5.37381 215.913L1.71313 217.614L2.88 212.752ZM31.68 170.992L32.9495 166.156L29.5559 165.265L27.5639 168.153L31.68 170.992ZM79.776 189.136L77.6023 193.639L84.776 197.102V189.136H79.776ZM79.776 184.816V179.816H74.776V184.816H79.776ZM92.736 184.816V189.816H97.736V184.816H92.736ZM92.736 144.784H97.736V127.247L88.4878 142.147L92.736 144.784ZM72 178.192L70.216 182.863L74.0716 184.336L76.2482 180.829L72 178.192ZM4.032 155.44L-0.0402614 152.539L-4.24933 158.447L2.76989 160.278L4.032 155.44ZM35.424 111.376L36.9352 106.61L33.4644 105.509L31.3517 108.475L35.424 111.376ZM70.56 124.624L68.6735 129.254L68.7091 129.269L68.7449 129.283L70.56 124.624ZM92.736 133.264L90.9209 137.923L97.736 140.578V133.264H92.736ZM92.736 117.424V112.424H87.736V117.424H92.736ZM275.328 117.424H280.328V112.424H275.328V117.424ZM275.328 184.816H270.328V189.816H275.328V184.816ZM217.44 153.136H222.44V148.136H217.44V153.136ZM150.048 153.136V148.136H145.048V153.136H150.048ZM150.048 184.816H145.048V189.816H150.048V184.816ZM156.96 184.816V189.816H161.96V184.816H156.96ZM156.96 158.32V153.32H151.96V158.32H156.96ZM217.44 158.32V163.32H222.44V158.32H217.44ZM200.16 179.92V174.92H195.16V179.92H200.16ZM200.16 184.816H195.16V189.816H200.16V184.816ZM217.44 184.816V189.816H222.44V184.816H217.44ZM217.44 179.92H222.44V174.92H217.44V179.92ZM223.2 219.664V224.664H228.2V219.664H223.2ZM223.2 214.768H228.2V209.768H223.2V214.768ZM142.272 214.768V209.768H137.272V214.768H142.272ZM142.272 219.664H137.272V224.664H142.272V219.664ZM214.848 247.888H219.848V242.888H214.848V247.888ZM148.32 247.888V242.888H143.32V247.888H148.32ZM148.32 252.496H143.32V257.496H148.32V252.496ZM214.848 252.496V257.496H219.848V252.496H214.848ZM148.32 272.08V267.08H143.32V272.08H148.32ZM148.32 276.976H143.32V281.976H148.32V276.976ZM214.848 276.976V281.976H219.848V276.976H214.848ZM214.848 272.08H219.848V267.08H214.848V272.08ZM278.968 184.816V234.64H288.968V184.816H278.968ZM283.968 229.64H272.736V239.64H283.968V229.64ZM267.736 234.64V309.232H277.736V234.64H267.736ZM267.736 309.232C267.736 315.736 266.116 319.885 263.639 322.492L270.889 329.38C275.708 324.307 277.736 317.32 277.736 309.232H267.736ZM263.634 322.497C261.409 324.846 255.903 327.352 245.433 329.066L247.047 338.934C257.697 337.192 266.207 334.322 270.894 329.375L263.634 322.497ZM245.418 329.068C235.476 330.725 219.976 331.592 198.72 331.592V341.592C220.088 341.592 236.269 340.731 247.062 338.932L245.418 329.068ZM203.59 335.459C201.644 327.092 199.663 320.22 197.627 314.925L188.293 318.515C190.097 323.204 191.956 329.58 193.85 337.725L203.59 335.459ZM197.703 315.139C195.754 309.292 192.457 303.51 187.964 297.791L180.1 303.969C184.055 309.002 186.71 313.78 188.217 318.301L197.703 315.139ZM183.832 305.876C188.717 306.071 194.451 306.168 201.024 306.168V296.168C194.541 296.168 188.947 296.073 184.232 295.884L183.832 305.876ZM201.024 306.168C204.324 306.168 207.031 306.12 209.116 306.018C211.011 305.926 212.896 305.774 214.206 305.4L211.458 295.784C211.538 295.762 211.377 295.81 210.796 295.873C210.27 295.931 209.555 295.985 208.628 296.03C206.777 296.12 204.252 296.168 201.024 296.168V306.168ZM214.045 305.443C215.06 305.189 216.519 304.716 217.742 303.668C218.413 303.093 219.124 302.248 219.539 301.086C219.967 299.888 219.959 298.692 219.699 297.651L209.997 300.077C209.833 299.42 209.813 298.584 210.121 297.722C210.416 296.896 210.899 296.363 211.234 296.076C211.785 295.604 212.14 295.611 211.619 295.741L214.045 305.443ZM219.848 298.864C219.848 298.862 219.848 298.861 219.848 298.859C219.848 298.858 219.848 298.857 219.848 298.855C219.848 298.854 219.848 298.852 219.848 298.851C219.848 298.849 219.848 298.848 219.848 298.846C219.848 298.845 219.848 298.843 219.848 298.842C219.848 298.84 219.848 298.839 219.848 298.837C219.848 298.836 219.848 298.834 219.848 298.833C219.848 298.831 219.848 298.83 219.848 298.828C219.848 298.827 219.848 298.825 219.848 298.824C219.848 298.822 219.848 298.821 219.848 298.819C219.848 298.818 219.848 298.816 219.848 298.815C219.848 298.813 219.848 298.812 219.848 298.81C219.848 298.809 219.848 298.808 219.848 298.806C219.848 298.805 219.848 298.803 219.848 298.802C219.848 298.8 219.848 298.799 219.848 298.797C219.848 298.796 219.848 298.794 219.848 298.793C219.848 298.791 219.848 298.79 219.848 298.788C219.848 298.787 219.848 298.786 219.848 298.784C219.848 298.783 219.848 298.781 219.848 298.78C219.848 298.778 219.848 298.777 219.848 298.775C219.848 298.774 219.848 298.772 219.848 298.771C219.848 298.77 219.848 298.768 219.848 298.767C219.848 298.765 219.848 298.764 219.848 298.762C219.848 298.761 219.848 298.759 219.848 298.758C219.848 298.756 219.848 298.755 219.848 298.754C219.848 298.752 219.848 298.751 219.848 298.749C219.848 298.748 219.848 298.746 219.848 298.745C219.848 298.743 219.848 298.742 219.848 298.741C219.848 298.739 219.848 298.738 219.848 298.736C219.848 298.735 219.848 298.733 219.848 298.732C219.848 298.731 219.848 298.729 219.848 298.728C219.848 298.726 219.848 298.725 219.848 298.723C219.848 298.722 219.848 298.721 219.848 298.719C219.848 298.718 219.848 298.716 219.848 298.715C219.848 298.713 219.848 298.712 219.848 298.711C219.848 298.709 219.848 298.708 219.848 298.706C219.848 298.705 219.848 298.703 219.848 298.702C219.848 298.701 219.848 298.699 219.848 298.698C219.848 298.696 219.848 298.695 219.848 298.694C219.848 298.692 219.848 298.691 219.848 298.689C219.848 298.688 219.848 298.686 219.848 298.685C219.848 298.684 219.848 298.682 219.848 298.681C219.848 298.679 219.848 298.678 219.848 298.677C219.848 298.675 219.848 298.674 219.848 298.672C219.848 298.671 219.848 298.67 219.848 298.668C219.848 298.667 219.848 298.665 219.848 298.664C219.848 298.663 219.848 298.661 219.848 298.66C219.848 298.658 219.848 298.657 219.848 298.656C219.848 298.654 219.848 298.653 219.848 298.651C219.848 298.65 219.848 298.649 219.848 298.647C219.848 298.646 219.848 298.644 219.848 298.643C219.848 298.642 219.848 298.64 219.848 298.639C219.848 298.638 219.848 298.636 219.848 298.635C219.848 298.633 219.848 298.632 219.848 298.631C219.848 298.629 219.848 298.628 219.848 298.626C219.848 298.625 219.848 298.624 219.848 298.622C219.848 298.621 219.848 298.62 219.848 298.618C219.848 298.617 219.848 298.615 219.848 298.614C219.848 298.613 219.848 298.611 219.848 298.61C219.848 298.609 219.848 298.607 219.848 298.606C219.848 298.604 219.848 298.603 219.848 298.602C219.848 298.6 219.848 298.599 219.848 298.598C219.848 298.596 219.848 298.595 219.848 298.594C219.848 298.592 219.848 298.591 219.848 298.59C219.848 298.588 219.848 298.587 219.848 298.585C219.848 298.584 219.848 298.583 219.848 298.581C219.848 298.58 219.848 298.579 219.848 298.577C219.848 298.576 219.848 298.575 219.848 298.573C219.848 298.572 219.848 298.571 219.848 298.569C219.848 298.568 219.848 298.566 219.848 298.565C219.848 298.564 219.848 298.562 219.848 298.561C219.848 298.56 219.848 298.558 219.848 298.557C219.848 298.556 219.848 298.554 219.848 298.553C219.848 298.552 219.848 298.55 219.848 298.549C219.848 298.548 219.848 298.546 219.848 298.545C219.848 298.544 219.848 298.542 219.848 298.541C219.848 298.54 219.848 298.538 219.848 298.537C219.848 298.536 219.848 298.534 219.848 298.533C219.848 298.532 219.848 298.53 219.848 298.529C219.848 298.528 219.848 298.526 219.848 298.525C219.848 298.524 219.848 298.522 219.848 298.521C219.848 298.52 219.848 298.518 219.848 298.517C219.848 298.516 219.848 298.515 219.848 298.513C219.848 298.512 219.848 298.511 219.848 298.509C219.848 298.508 219.848 298.507 219.848 298.505C219.848 298.504 219.848 298.503 219.848 298.501C219.848 298.5 219.848 298.499 219.848 298.497C219.848 298.496 219.848 298.495 219.848 298.494C219.848 298.492 219.848 298.491 219.848 298.49C219.848 298.488 219.848 298.487 219.848 298.486C219.848 298.484 219.848 298.483 219.848 298.482C219.848 298.48 219.848 298.479 219.848 298.478C219.848 298.477 219.848 298.475 219.848 298.474C219.848 298.473 219.848 298.471 219.848 298.47C219.848 298.469 219.848 298.468 219.848 298.466C219.848 298.465 219.848 298.464 219.848 298.462C219.848 298.461 219.848 298.46 219.848 298.458C219.848 298.457 219.848 298.456 219.848 298.455C219.848 298.453 219.848 298.452 219.848 298.451C219.848 298.45 219.848 298.448 219.848 298.447C219.848 298.446 219.848 298.444 219.848 298.443C219.848 298.442 219.848 298.441 219.848 298.439C219.848 298.438 219.848 298.437 219.848 298.435C219.848 298.434 219.848 298.433 219.848 298.432C219.848 298.43 219.848 298.429 219.848 298.428C219.848 298.427 219.848 298.425 219.848 298.424C219.848 298.423 219.848 298.422 219.848 298.42C219.848 298.419 219.848 298.418 219.848 298.416C219.848 298.415 219.848 298.414 219.848 298.413C219.848 298.411 219.848 298.41 219.848 298.409C219.848 298.408 219.848 298.406 219.848 298.405C219.848 298.404 219.848 298.403 219.848 298.401C219.848 298.4 219.848 298.399 219.848 298.398C219.848 298.396 219.848 298.395 219.848 298.394C219.848 298.393 219.848 298.391 219.848 298.39C219.848 298.389 219.848 298.388 219.848 298.386C219.848 298.385 219.848 298.384 219.848 298.383C219.848 298.381 219.848 298.38 219.848 298.379C219.848 298.378 219.848 298.376 219.848 298.375C219.848 298.374 219.848 298.373 219.848 298.371C219.848 298.37 219.848 298.369 219.848 298.368C219.848 298.367 219.848 298.365 219.848 298.364C219.848 298.363 219.848 298.362 219.848 298.36C219.848 298.359 219.848 298.358 219.848 298.357C219.848 298.355 219.848 298.354 219.848 298.353C219.848 298.352 219.848 298.351 219.848 298.349C219.848 298.348 219.848 298.347 219.848 298.346C219.848 298.344 219.848 298.343 219.848 298.342C219.848 298.341 219.848 298.34 219.848 298.338C219.848 298.337 219.848 298.336 219.848 298.335C219.848 298.333 219.848 298.332 219.848 298.331C219.848 298.33 219.848 298.329 219.848 298.327C219.848 298.326 219.848 298.325 219.848 298.324C219.848 298.323 219.848 298.321 219.848 298.32C219.848 298.319 219.848 298.318 219.848 298.317C219.848 298.315 219.848 298.314 219.848 298.313C219.848 298.312 219.848 298.311 219.848 298.309C219.848 298.308 219.848 298.307 219.848 298.306C219.848 298.305 219.848 298.303 219.848 298.302C219.848 298.301 219.848 298.3 219.848 298.299C219.848 298.297 219.848 298.296 219.848 298.295C219.848 298.294 219.848 298.293 219.848 298.291C219.848 298.29 219.848 298.289 219.848 298.288C219.848 298.287 219.848 298.286 219.848 298.284C219.848 298.283 219.848 298.282 219.848 298.281C219.848 298.28 219.848 298.278 219.848 298.277C219.848 298.276 219.848 298.275 219.848 298.274C219.848 298.273 219.848 298.271 219.848 298.27C219.848 298.269 219.848 298.268 219.848 298.267C219.848 298.266 219.848 298.264 219.848 298.263C219.848 298.262 219.848 298.261 219.848 298.26C219.848 298.258 219.848 298.257 219.848 298.256C219.848 298.255 219.848 298.254 219.848 298.253C219.848 298.251 219.848 298.25 219.848 298.249C219.848 298.248 219.848 298.247 219.848 298.246C219.848 298.245 219.848 298.243 219.848 298.242C219.848 298.241 219.848 298.24 219.848 298.239C219.848 298.238 219.848 298.236 219.848 298.235C219.848 298.234 219.848 298.233 219.848 298.232C219.848 298.231 219.848 298.23 219.848 298.228C219.848 298.227 219.848 298.226 219.848 298.225C219.848 298.224 219.848 298.223 219.848 298.221C219.848 298.22 219.848 298.219 219.848 298.218C219.848 298.217 219.848 298.216 219.848 298.215C219.848 298.214 219.848 298.212 219.848 298.211C219.848 298.21 219.848 298.209 219.848 298.208C219.848 298.207 219.848 298.206 219.848 298.204C219.848 298.203 219.848 298.202 219.848 298.201C219.848 298.2 219.848 298.199 219.848 298.198C219.848 298.197 219.848 298.195 219.848 298.194C219.848 298.193 219.848 298.192 219.848 298.191C219.848 298.19 219.848 298.189 219.848 298.188C219.848 298.186 219.848 298.185 219.848 298.184C219.848 298.183 219.848 298.182 219.848 298.181C219.848 298.18 219.848 298.179 219.848 298.177C219.848 298.176 219.848 298.175 219.848 298.174C219.848 298.173 219.848 298.172 219.848 298.171C219.848 298.17 219.848 298.169 219.848 298.167C219.848 298.166 219.848 298.165 219.848 298.164C219.848 298.163 219.848 298.162 219.848 298.161C219.848 298.16 219.848 298.159 219.848 298.157C219.848 298.156 219.848 298.155 219.848 298.154C219.848 298.153 219.848 298.152 219.848 298.151C219.848 298.15 219.848 298.149 219.848 298.148C219.848 298.146 219.848 298.145 219.848 298.144C219.848 298.143 219.848 298.142 219.848 298.141C219.848 298.14 219.848 298.139 219.848 298.138C219.848 298.137 219.848 298.136 219.848 298.134C219.848 298.133 219.848 298.132 219.848 298.131C219.848 298.13 219.848 298.129 219.848 298.128C219.848 298.127 219.848 298.126 219.848 298.125C219.848 298.124 219.848 298.123 219.848 298.121C219.848 298.12 219.848 298.119 219.848 298.118C219.848 298.117 219.848 298.116 219.848 298.115C219.848 298.114 219.848 298.113 219.848 298.112C219.848 298.111 219.848 298.11 219.848 298.109C219.848 298.108 219.848 298.106 219.848 298.105C219.848 298.104 219.848 298.103 219.848 298.102C219.848 298.101 219.848 298.1 219.848 298.099C219.848 298.098 219.848 298.097 219.848 298.096C219.848 298.095 219.848 298.094 219.848 298.093C219.848 298.092 219.848 298.091 219.848 298.089C219.848 298.088 219.848 298.087 219.848 298.086C219.848 298.085 219.848 298.084 219.848 298.083C219.848 298.082 219.848 298.081 219.848 298.08C219.848 298.079 219.848 298.078 219.848 298.077C219.848 298.076 219.848 298.075 219.848 298.074C219.848 298.073 219.848 298.072 219.848 298.071C219.848 298.07 219.848 298.069 219.848 298.067C219.848 298.066 219.848 298.065 219.848 298.064C219.848 298.063 219.848 298.062 219.848 298.061C219.848 298.06 219.848 298.059 219.848 298.058C219.848 298.057 219.848 298.056 219.848 298.055C219.848 298.054 219.848 298.053 219.848 298.052C219.848 298.051 219.848 298.05 219.848 298.049C219.848 298.048 219.848 298.047 219.848 298.046C219.848 298.045 219.848 298.044 219.848 298.043C219.848 298.042 219.848 298.041 219.848 298.04C219.848 298.039 219.848 298.038 219.848 298.037C219.848 298.036 219.848 298.035 219.848 298.034C219.848 298.033 219.848 298.031 219.848 298.03C219.848 298.029 219.848 298.028 219.848 298.027C219.848 298.026 219.848 298.025 219.848 298.024C219.848 298.023 219.848 298.022 219.848 298.021C219.848 298.02 219.848 298.019 219.848 298.018C219.848 298.017 219.848 298.016 219.848 298.015C219.848 298.014 219.848 298.013 219.848 298.012C219.848 298.011 219.848 298.01 219.848 298.009C219.848 298.008 219.848 298.007 219.848 298.006C219.848 298.005 219.848 298.004 219.848 298.003C219.848 298.002 219.848 298.001 219.848 298C219.848 297.999 219.848 297.998 219.848 297.997C219.848 297.996 219.848 297.995 219.848 297.994C219.848 297.993 219.848 297.992 219.848 297.991C219.848 297.99 219.848 297.99 219.848 297.989C219.848 297.988 219.848 297.987 219.848 297.986C219.848 297.985 219.848 297.984 219.848 297.983C219.848 297.982 219.848 297.981 219.848 297.98C219.848 297.979 219.848 297.978 219.848 297.977C219.848 297.976 219.848 297.975 219.848 297.974C219.848 297.973 219.848 297.972 219.848 297.971C219.848 297.97 219.848 297.969 219.848 297.968C219.848 297.967 219.848 297.966 219.848 297.965C219.848 297.964 219.848 297.963 219.848 297.962C219.848 297.961 219.848 297.96 219.848 297.959C219.848 297.958 219.848 297.957 219.848 297.956C219.848 297.956 219.848 297.955 219.848 297.954C219.848 297.953 219.848 297.952 219.848 297.951C219.848 297.95 219.848 297.949 219.848 297.948C219.848 297.947 219.848 297.946 219.848 297.945C219.848 297.944 219.848 297.943 219.848 297.942C219.848 297.941 219.848 297.94 219.848 297.939C219.848 297.938 219.848 297.937 219.848 297.936C219.848 297.936 219.848 297.935 219.848 297.934C219.848 297.933 219.848 297.932 219.848 297.931C219.848 297.93 219.848 297.929 219.848 297.928C219.848 297.927 219.848 297.926 219.848 297.925C219.848 297.924 219.848 297.923 219.848 297.922C219.848 297.921 219.848 297.921 219.848 297.92C219.848 297.919 219.848 297.918 219.848 297.917C219.848 297.916 219.848 297.915 219.848 297.914C219.848 297.913 219.848 297.912 219.848 297.911C219.848 297.91 219.848 297.909 219.848 297.908C219.848 297.908 219.848 297.907 219.848 297.906C219.848 297.905 219.848 297.904 219.848 297.903C219.848 297.902 219.848 297.901 219.848 297.9C219.848 297.899 219.848 297.898 219.848 297.897C219.848 297.897 219.848 297.896 219.848 297.895C219.848 297.894 219.848 297.893 219.848 297.892C219.848 297.891 219.848 297.89 219.848 297.889C219.848 297.888 219.848 297.887 219.848 297.887C219.848 297.886 219.848 297.885 219.848 297.884C219.848 297.883 219.848 297.882 219.848 297.881C219.848 297.88 219.848 297.879 219.848 297.878C219.848 297.878 219.848 297.877 219.848 297.876C219.848 297.875 219.848 297.874 219.848 297.873C219.848 297.872 219.848 297.871 219.848 297.87C219.848 297.87 219.848 297.869 219.848 297.868C219.848 297.867 219.848 297.866 219.848 297.865C219.848 297.864 219.848 297.863 219.848 297.862C219.848 297.862 219.848 297.861 219.848 297.86C219.848 297.859 219.848 297.858 219.848 297.857C219.848 297.856 219.848 297.855 219.848 297.854C219.848 297.854 219.848 297.853 219.848 297.852C219.848 297.851 219.848 297.85 219.848 297.849C219.848 297.848 219.848 297.847 219.848 297.847C219.848 297.846 219.848 297.845 219.848 297.844C219.848 297.843 219.848 297.842 219.848 297.841C219.848 297.841 219.848 297.84 219.848 297.839C219.848 297.838 219.848 297.837 219.848 297.836C219.848 297.835 219.848 297.834 219.848 297.834C219.848 297.833 219.848 297.832 219.848 297.831C219.848 297.83 219.848 297.829 219.848 297.828C219.848 297.828 219.848 297.827 219.848 297.826C219.848 297.825 219.848 297.824 219.848 297.823C219.848 297.822 219.848 297.822 219.848 297.821C219.848 297.82 219.848 297.819 219.848 297.818C219.848 297.817 219.848 297.817 219.848 297.816C219.848 297.815 219.848 297.814 219.848 297.813C219.848 297.812 219.848 297.811 219.848 297.811C219.848 297.81 219.848 297.809 219.848 297.808C219.848 297.807 219.848 297.806 219.848 297.806C219.848 297.805 219.848 297.804 219.848 297.803C219.848 297.802 219.848 297.801 219.848 297.801C219.848 297.8 219.848 297.799 219.848 297.798C219.848 297.797 219.848 297.796 219.848 297.796C219.848 297.795 219.848 297.794 219.848 297.793C219.848 297.792 219.848 297.791 219.848 297.791C219.848 297.79 219.848 297.789 219.848 297.788C219.848 297.787 219.848 297.787 219.848 297.786C219.848 297.785 219.848 297.784 219.848 297.783C219.848 297.782 219.848 297.782 219.848 297.781C219.848 297.78 219.848 297.779 219.848 297.778C219.848 297.778 219.848 297.777 219.848 297.776C219.848 297.775 219.848 297.774 219.848 297.774C219.848 297.773 219.848 297.772 219.848 297.771C219.848 297.77 219.848 297.77 219.848 297.769C219.848 297.768 219.848 297.767 219.848 297.766C219.848 297.766 219.848 297.765 219.848 297.764C219.848 297.763 219.848 297.762 219.848 297.762C219.848 297.761 219.848 297.76 219.848 297.759C219.848 297.758 219.848 297.758 219.848 297.757C219.848 297.756 219.848 297.755 219.848 297.754C219.848 297.754 219.848 297.753 219.848 297.752C219.848 297.751 219.848 297.75 219.848 297.75C219.848 297.749 219.848 297.748 219.848 297.747C219.848 297.746 219.848 297.746 219.848 297.745C219.848 297.744 219.848 297.743 219.848 297.743C219.848 297.742 219.848 297.741 219.848 297.74C219.848 297.739 219.848 297.739 219.848 297.738C219.848 297.737 219.848 297.736 219.848 297.736C219.848 297.735 219.848 297.734 219.848 297.733C219.848 297.733 219.848 297.732 219.848 297.731C219.848 297.73 219.848 297.729 219.848 297.729C219.848 297.728 219.848 297.727 219.848 297.726C219.848 297.726 219.848 297.725 219.848 297.724C219.848 297.723 219.848 297.723 219.848 297.722C219.848 297.721 219.848 297.72 219.848 297.72C219.848 297.719 219.848 297.718 219.848 297.717C219.848 297.717 219.848 297.716 219.848 297.715C219.848 297.714 219.848 297.714 219.848 297.713C219.848 297.712 219.848 297.711 219.848 297.711C219.848 297.71 219.848 297.709 219.848 297.708C219.848 297.708 219.848 297.707 219.848 297.706C219.848 297.705 219.848 297.705 219.848 297.704C219.848 297.703 219.848 297.702 219.848 297.702C219.848 297.701 219.848 297.7 219.848 297.699C219.848 297.699 219.848 297.698 219.848 297.697C219.848 297.696 219.848 297.696 219.848 297.695C219.848 297.694 219.848 297.693 219.848 297.693C219.848 297.692 219.848 297.691 219.848 297.691C219.848 297.69 219.848 297.689 219.848 297.688C219.848 297.688 219.848 297.687 219.848 297.686C219.848 297.685 219.848 297.685 219.848 297.684C219.848 297.683 219.848 297.683 219.848 297.682C219.848 297.681 219.848 297.68 219.848 297.68C219.848 297.679 219.848 297.678 219.848 297.678C219.848 297.677 219.848 297.676 219.848 297.675C219.848 297.675 219.848 297.674 219.848 297.673C219.848 297.673 219.848 297.672 219.848 297.671C219.848 297.67 219.848 297.67 219.848 297.669C219.848 297.668 219.848 297.668 219.848 297.667C219.848 297.666 219.848 297.665 219.848 297.665C219.848 297.664 219.848 297.663 219.848 297.663C219.848 297.662 219.848 297.661 219.848 297.661C219.848 297.66 219.848 297.659 219.848 297.659C219.848 297.658 219.848 297.657 219.848 297.656C219.848 297.656 219.848 297.655 219.848 297.654C219.848 297.654 219.848 297.653 219.848 297.652C219.848 297.652 219.848 297.651 219.848 297.65C219.848 297.65 219.848 297.649 219.848 297.648C219.848 297.647 219.848 297.647 219.848 297.646C219.848 297.645 219.848 297.645 219.848 297.644C219.848 297.643 219.848 297.643 219.848 297.642C219.848 297.641 219.848 297.641 219.848 297.64C219.848 297.639 219.848 297.639 219.848 297.638C219.848 297.637 219.848 297.637 219.848 297.636C219.848 297.635 219.848 297.635 219.848 297.634C219.848 297.633 219.848 297.633 219.848 297.632C219.848 297.631 219.848 297.631 219.848 297.63C219.848 297.629 219.848 297.629 219.848 297.628C219.848 297.627 219.848 297.627 219.848 297.626C219.848 297.625 219.848 297.625 219.848 297.624C219.848 297.623 219.848 297.623 219.848 297.622C219.848 297.621 219.848 297.621 219.848 297.62C219.848 297.619 219.848 297.619 219.848 297.618C219.848 297.617 219.848 297.617 219.848 297.616C219.848 297.615 219.848 297.615 219.848 297.614C219.848 297.614 219.848 297.613 219.848 297.612C219.848 297.612 219.848 297.611 219.848 297.61C219.848 297.61 219.848 297.609 219.848 297.608C219.848 297.608 219.848 297.607 219.848 297.606C219.848 297.606 219.848 297.605 219.848 297.605C219.848 297.604 219.848 297.603 219.848 297.603C219.848 297.602 219.848 297.601 219.848 297.601C219.848 297.6 219.848 297.599 219.848 297.599C219.848 297.598 219.848 297.598 219.848 297.597C219.848 297.596 219.848 297.596 219.848 297.595C219.848 297.594 219.848 297.594 219.848 297.593C219.848 297.593 219.848 297.592 219.848 297.591C219.848 297.591 219.848 297.59 219.848 297.589C219.848 297.589 219.848 297.588 219.848 297.588C219.848 297.587 219.848 297.586 219.848 297.586C219.848 297.585 219.848 297.585 219.848 297.584C219.848 297.583 219.848 297.583 219.848 297.582C219.848 297.582 219.848 297.581 219.848 297.58C219.848 297.58 219.848 297.579 219.848 297.578C219.848 297.578 219.848 297.577 219.848 297.577C219.848 297.576 219.848 297.575 219.848 297.575C219.848 297.574 219.848 297.574 219.848 297.573C219.848 297.572 219.848 297.572 219.848 297.571C219.848 297.571 219.848 297.57 219.848 297.569C219.848 297.569 219.848 297.568 219.848 297.568C219.848 297.567 219.848 297.566 219.848 297.566C219.848 297.565 219.848 297.565 219.848 297.564C219.848 297.564 219.848 297.563 219.848 297.562C219.848 297.562 219.848 297.561 219.848 297.561C219.848 297.56 219.848 297.559 219.848 297.559C219.848 297.558 219.848 297.558 219.848 297.557C219.848 297.557 219.848 297.556 219.848 297.555C219.848 297.555 219.848 297.554 219.848 297.554C219.848 297.553 219.848 297.553 219.848 297.552C219.848 297.551 219.848 297.551 219.848 297.55C219.848 297.55 219.848 297.549 219.848 297.549C219.848 297.548 219.848 297.547 219.848 297.547C219.848 297.546 219.848 297.546 219.848 297.545C219.848 297.545 219.848 297.544 219.848 297.543C219.848 297.543 219.848 297.542 219.848 297.542C219.848 297.541 219.848 297.541 219.848 297.54C219.848 297.54 219.848 297.539 219.848 297.538C219.848 297.538 219.848 297.537 219.848 297.537C219.848 297.536 219.848 297.536 219.848 297.535C219.848 297.535 219.848 297.534 219.848 297.533C219.848 297.533 219.848 297.532 219.848 297.532C219.848 297.531 219.848 297.531 219.848 297.53C219.848 297.53 219.848 297.529 219.848 297.529C219.848 297.528 219.848 297.527 219.848 297.527C219.848 297.526 219.848 297.526 219.848 297.525C219.848 297.525 219.848 297.524 219.848 297.524C219.848 297.523 219.848 297.523 219.848 297.522C219.848 297.522 219.848 297.521 219.848 297.52C219.848 297.52 219.848 297.519 219.848 297.519C219.848 297.518 219.848 297.518 219.848 297.517C219.848 297.517 219.848 297.516 219.848 297.516C219.848 297.515 219.848 297.515 219.848 297.514C219.848 297.514 219.848 297.513 219.848 297.513C219.848 297.512 219.848 297.512 219.848 297.511C219.848 297.511 219.848 297.51 219.848 297.509C219.848 297.509 219.848 297.508 219.848 297.508C219.848 297.507 219.848 297.507 219.848 297.506C219.848 297.506 219.848 297.505 219.848 297.505C219.848 297.504 219.848 297.504 219.848 297.503C219.848 297.503 219.848 297.502 219.848 297.502C219.848 297.501 219.848 297.501 219.848 297.5C219.848 297.5 219.848 297.499 219.848 297.499C219.848 297.498 219.848 297.498 219.848 297.497C219.848 297.497 219.848 297.496 219.848 297.496C219.848 297.495 219.848 297.495 219.848 297.494C219.848 297.494 219.848 297.493 219.848 297.493C219.848 297.492 219.848 297.492 219.848 297.491C219.848 297.491 219.848 297.49 219.848 297.49C219.848 297.489 219.848 297.489 219.848 297.488C219.848 297.488 219.848 297.488 219.848 297.487C219.848 297.487 219.848 297.486 219.848 297.486C219.848 297.485 219.848 297.485 219.848 297.484C219.848 297.484 219.848 297.483 219.848 297.483C219.848 297.482 219.848 297.482 219.848 297.481C219.848 297.481 219.848 297.48 219.848 297.48C219.848 297.479 219.848 297.479 219.848 297.478C219.848 297.478 219.848 297.478 219.848 297.477C219.848 297.477 219.848 297.476 219.848 297.476C219.848 297.475 219.848 297.475 219.848 297.474C219.848 297.474 219.848 297.473 219.848 297.473C219.848 297.472 219.848 297.472 219.848 297.471C219.848 297.471 219.848 297.471 219.848 297.47C219.848 297.47 219.848 297.469 219.848 297.469C219.848 297.468 219.848 297.468 219.848 297.467C219.848 297.467 219.848 297.467 219.848 297.466C219.848 297.466 219.848 297.465 219.848 297.465C219.848 297.464 219.848 297.464 219.848 297.463C219.848 297.463 219.848 297.462 219.848 297.462C219.848 297.462 219.848 297.461 219.848 297.461C219.848 297.46 219.848 297.46 219.848 297.459C219.848 297.459 219.848 297.459 219.848 297.458C219.848 297.458 219.848 297.457 219.848 297.457C219.848 297.456 219.848 297.456 219.848 297.455C219.848 297.455 219.848 297.455 219.848 297.454C219.848 297.454 219.848 297.453 219.848 297.453C219.848 297.452 219.848 297.452 219.848 297.452C219.848 297.451 219.848 297.451 219.848 297.45C219.848 297.45 219.848 297.449 219.848 297.449C219.848 297.449 219.848 297.448 219.848 297.448C219.848 297.447 219.848 297.447 219.848 297.447C219.848 297.446 219.848 297.446 219.848 297.445C219.848 297.445 219.848 297.444 219.848 297.444C219.848 297.444 219.848 297.443 219.848 297.443C219.848 297.442 219.848 297.442 219.848 297.442C219.848 297.441 219.848 297.441 219.848 297.44C219.848 297.44 219.848 297.44 219.848 297.439C219.848 297.439 219.848 297.438 219.848 297.438C219.848 297.438 219.848 297.437 219.848 297.437C219.848 297.436 219.848 297.436 219.848 297.436C219.848 297.435 219.848 297.435 219.848 297.434C219.848 297.434 219.848 297.434 219.848 297.433C219.848 297.433 219.848 297.432 219.848 297.432C219.848 297.432 219.848 297.431 219.848 297.431C219.848 297.43 219.848 297.43 219.848 297.43C219.848 297.429 219.848 297.429 219.848 297.429C219.848 297.428 219.848 297.428 219.848 297.427C219.848 297.427 219.848 297.427 219.848 297.426C219.848 297.426 219.848 297.426 219.848 297.425C219.848 297.425 219.848 297.424 219.848 297.424H209.848C209.848 297.424 209.848 297.425 209.848 297.425C209.848 297.426 209.848 297.426 209.848 297.426C209.848 297.427 209.848 297.427 209.848 297.427C209.848 297.428 209.848 297.428 209.848 297.429C209.848 297.429 209.848 297.429 209.848 297.43C209.848 297.43 209.848 297.43 209.848 297.431C209.848 297.431 209.848 297.432 209.848 297.432C209.848 297.432 209.848 297.433 209.848 297.433C209.848 297.434 209.848 297.434 209.848 297.434C209.848 297.435 209.848 297.435 209.848 297.436C209.848 297.436 209.848 297.436 209.848 297.437C209.848 297.437 209.848 297.438 209.848 297.438C209.848 297.438 209.848 297.439 209.848 297.439C209.848 297.44 209.848 297.44 209.848 297.44C209.848 297.441 209.848 297.441 209.848 297.442C209.848 297.442 209.848 297.442 209.848 297.443C209.848 297.443 209.848 297.444 209.848 297.444C209.848 297.444 209.848 297.445 209.848 297.445C209.848 297.446 209.848 297.446 209.848 297.447C209.848 297.447 209.848 297.447 209.848 297.448C209.848 297.448 209.848 297.449 209.848 297.449C209.848 297.449 209.848 297.45 209.848 297.45C209.848 297.451 209.848 297.451 209.848 297.452C209.848 297.452 209.848 297.452 209.848 297.453C209.848 297.453 209.848 297.454 209.848 297.454C209.848 297.455 209.848 297.455 209.848 297.455C209.848 297.456 209.848 297.456 209.848 297.457C209.848 297.457 209.848 297.458 209.848 297.458C209.848 297.459 209.848 297.459 209.848 297.459C209.848 297.46 209.848 297.46 209.848 297.461C209.848 297.461 209.848 297.462 209.848 297.462C209.848 297.462 209.848 297.463 209.848 297.463C209.848 297.464 209.848 297.464 209.848 297.465C209.848 297.465 209.848 297.466 209.848 297.466C209.848 297.467 209.848 297.467 209.848 297.467C209.848 297.468 209.848 297.468 209.848 297.469C209.848 297.469 209.848 297.47 209.848 297.47C209.848 297.471 209.848 297.471 209.848 297.471C209.848 297.472 209.848 297.472 209.848 297.473C209.848 297.473 209.848 297.474 209.848 297.474C209.848 297.475 209.848 297.475 209.848 297.476C209.848 297.476 209.848 297.477 209.848 297.477C209.848 297.478 209.848 297.478 209.848 297.478C209.848 297.479 209.848 297.479 209.848 297.48C209.848 297.48 209.848 297.481 209.848 297.481C209.848 297.482 209.848 297.482 209.848 297.483C209.848 297.483 209.848 297.484 209.848 297.484C209.848 297.485 209.848 297.485 209.848 297.486C209.848 297.486 209.848 297.487 209.848 297.487C209.848 297.488 209.848 297.488 209.848 297.488C209.848 297.489 209.848 297.489 209.848 297.49C209.848 297.49 209.848 297.491 209.848 297.491C209.848 297.492 209.848 297.492 209.848 297.493C209.848 297.493 209.848 297.494 209.848 297.494C209.848 297.495 209.848 297.495 209.848 297.496C209.848 297.496 209.848 297.497 209.848 297.497C209.848 297.498 209.848 297.498 209.848 297.499C209.848 297.499 209.848 297.5 209.848 297.5C209.848 297.501 209.848 297.501 209.848 297.502C209.848 297.502 209.848 297.503 209.848 297.503C209.848 297.504 209.848 297.504 209.848 297.505C209.848 297.505 209.848 297.506 209.848 297.506C209.848 297.507 209.848 297.507 209.848 297.508C209.848 297.508 209.848 297.509 209.848 297.509C209.848 297.51 209.848 297.511 209.848 297.511C209.848 297.512 209.848 297.512 209.848 297.513C209.848 297.513 209.848 297.514 209.848 297.514C209.848 297.515 209.848 297.515 209.848 297.516C209.848 297.516 209.848 297.517 209.848 297.517C209.848 297.518 209.848 297.518 209.848 297.519C209.848 297.519 209.848 297.52 209.848 297.52C209.848 297.521 209.848 297.522 209.848 297.522C209.848 297.523 209.848 297.523 209.848 297.524C209.848 297.524 209.848 297.525 209.848 297.525C209.848 297.526 209.848 297.526 209.848 297.527C209.848 297.527 209.848 297.528 209.848 297.529C209.848 297.529 209.848 297.53 209.848 297.53C209.848 297.531 209.848 297.531 209.848 297.532C209.848 297.532 209.848 297.533 209.848 297.533C209.848 297.534 209.848 297.535 209.848 297.535C209.848 297.536 209.848 297.536 209.848 297.537C209.848 297.537 209.848 297.538 209.848 297.538C209.848 297.539 209.848 297.54 209.848 297.54C209.848 297.541 209.848 297.541 209.848 297.542C209.848 297.542 209.848 297.543 209.848 297.543C209.848 297.544 209.848 297.545 209.848 297.545C209.848 297.546 209.848 297.546 209.848 297.547C209.848 297.547 209.848 297.548 209.848 297.549C209.848 297.549 209.848 297.55 209.848 297.55C209.848 297.551 209.848 297.551 209.848 297.552C209.848 297.553 209.848 297.553 209.848 297.554C209.848 297.554 209.848 297.555 209.848 297.555C209.848 297.556 209.848 297.557 209.848 297.557C209.848 297.558 209.848 297.558 209.848 297.559C209.848 297.559 209.848 297.56 209.848 297.561C209.848 297.561 209.848 297.562 209.848 297.562C209.848 297.563 209.848 297.564 209.848 297.564C209.848 297.565 209.848 297.565 209.848 297.566C209.848 297.566 209.848 297.567 209.848 297.568C209.848 297.568 209.848 297.569 209.848 297.569C209.848 297.57 209.848 297.571 209.848 297.571C209.848 297.572 209.848 297.572 209.848 297.573C209.848 297.574 209.848 297.574 209.848 297.575C209.848 297.575 209.848 297.576 209.848 297.577C209.848 297.577 209.848 297.578 209.848 297.578C209.848 297.579 209.848 297.58 209.848 297.58C209.848 297.581 209.848 297.582 209.848 297.582C209.848 297.583 209.848 297.583 209.848 297.584C209.848 297.585 209.848 297.585 209.848 297.586C209.848 297.586 209.848 297.587 209.848 297.588C209.848 297.588 209.848 297.589 209.848 297.589C209.848 297.59 209.848 297.591 209.848 297.591C209.848 297.592 209.848 297.593 209.848 297.593C209.848 297.594 209.848 297.594 209.848 297.595C209.848 297.596 209.848 297.596 209.848 297.597C209.848 297.598 209.848 297.598 209.848 297.599C209.848 297.599 209.848 297.6 209.848 297.601C209.848 297.601 209.848 297.602 209.848 297.603C209.848 297.603 209.848 297.604 209.848 297.605C209.848 297.605 209.848 297.606 209.848 297.606C209.848 297.607 209.848 297.608 209.848 297.608C209.848 297.609 209.848 297.61 209.848 297.61C209.848 297.611 209.848 297.612 209.848 297.612C209.848 297.613 209.848 297.614 209.848 297.614C209.848 297.615 209.848 297.615 209.848 297.616C209.848 297.617 209.848 297.617 209.848 297.618C209.848 297.619 209.848 297.619 209.848 297.62C209.848 297.621 209.848 297.621 209.848 297.622C209.848 297.623 209.848 297.623 209.848 297.624C209.848 297.625 209.848 297.625 209.848 297.626C209.848 297.627 209.848 297.627 209.848 297.628C209.848 297.629 209.848 297.629 209.848 297.63C209.848 297.631 209.848 297.631 209.848 297.632C209.848 297.633 209.848 297.633 209.848 297.634C209.848 297.635 209.848 297.635 209.848 297.636C209.848 297.637 209.848 297.637 209.848 297.638C209.848 297.639 209.848 297.639 209.848 297.64C209.848 297.641 209.848 297.641 209.848 297.642C209.848 297.643 209.848 297.643 209.848 297.644C209.848 297.645 209.848 297.645 209.848 297.646C209.848 297.647 209.848 297.647 209.848 297.648C209.848 297.649 209.848 297.65 209.848 297.65C209.848 297.651 209.848 297.652 209.848 297.652C209.848 297.653 209.848 297.654 209.848 297.654C209.848 297.655 209.848 297.656 209.848 297.656C209.848 297.657 209.848 297.658 209.848 297.659C209.848 297.659 209.848 297.66 209.848 297.661C209.848 297.661 209.848 297.662 209.848 297.663C209.848 297.663 209.848 297.664 209.848 297.665C209.848 297.665 209.848 297.666 209.848 297.667C209.848 297.668 209.848 297.668 209.848 297.669C209.848 297.67 209.848 297.67 209.848 297.671C209.848 297.672 209.848 297.673 209.848 297.673C209.848 297.674 209.848 297.675 209.848 297.675C209.848 297.676 209.848 297.677 209.848 297.678C209.848 297.678 209.848 297.679 209.848 297.68C209.848 297.68 209.848 297.681 209.848 297.682C209.848 297.683 209.848 297.683 209.848 297.684C209.848 297.685 209.848 297.685 209.848 297.686C209.848 297.687 209.848 297.688 209.848 297.688C209.848 297.689 209.848 297.69 209.848 297.691C209.848 297.691 209.848 297.692 209.848 297.693C209.848 297.693 209.848 297.694 209.848 297.695C209.848 297.696 209.848 297.696 209.848 297.697C209.848 297.698 209.848 297.699 209.848 297.699C209.848 297.7 209.848 297.701 209.848 297.702C209.848 297.702 209.848 297.703 209.848 297.704C209.848 297.705 209.848 297.705 209.848 297.706C209.848 297.707 209.848 297.708 209.848 297.708C209.848 297.709 209.848 297.71 209.848 297.711C209.848 297.711 209.848 297.712 209.848 297.713C209.848 297.714 209.848 297.714 209.848 297.715C209.848 297.716 209.848 297.717 209.848 297.717C209.848 297.718 209.848 297.719 209.848 297.72C209.848 297.72 209.848 297.721 209.848 297.722C209.848 297.723 209.848 297.723 209.848 297.724C209.848 297.725 209.848 297.726 209.848 297.726C209.848 297.727 209.848 297.728 209.848 297.729C209.848 297.729 209.848 297.73 209.848 297.731C209.848 297.732 209.848 297.733 209.848 297.733C209.848 297.734 209.848 297.735 209.848 297.736C209.848 297.736 209.848 297.737 209.848 297.738C209.848 297.739 209.848 297.739 209.848 297.74C209.848 297.741 209.848 297.742 209.848 297.743C209.848 297.743 209.848 297.744 209.848 297.745C209.848 297.746 209.848 297.746 209.848 297.747C209.848 297.748 209.848 297.749 209.848 297.75C209.848 297.75 209.848 297.751 209.848 297.752C209.848 297.753 209.848 297.754 209.848 297.754C209.848 297.755 209.848 297.756 209.848 297.757C209.848 297.758 209.848 297.758 209.848 297.759C209.848 297.76 209.848 297.761 209.848 297.762C209.848 297.762 209.848 297.763 209.848 297.764C209.848 297.765 209.848 297.766 209.848 297.766C209.848 297.767 209.848 297.768 209.848 297.769C209.848 297.77 209.848 297.77 209.848 297.771C209.848 297.772 209.848 297.773 209.848 297.774C209.848 297.774 209.848 297.775 209.848 297.776C209.848 297.777 209.848 297.778 209.848 297.778C209.848 297.779 209.848 297.78 209.848 297.781C209.848 297.782 209.848 297.782 209.848 297.783C209.848 297.784 209.848 297.785 209.848 297.786C209.848 297.787 209.848 297.787 209.848 297.788C209.848 297.789 209.848 297.79 209.848 297.791C209.848 297.791 209.848 297.792 209.848 297.793C209.848 297.794 209.848 297.795 209.848 297.796C209.848 297.796 209.848 297.797 209.848 297.798C209.848 297.799 209.848 297.8 209.848 297.801C209.848 297.801 209.848 297.802 209.848 297.803C209.848 297.804 209.848 297.805 209.848 297.806C209.848 297.806 209.848 297.807 209.848 297.808C209.848 297.809 209.848 297.81 209.848 297.811C209.848 297.811 209.848 297.812 209.848 297.813C209.848 297.814 209.848 297.815 209.848 297.816C209.848 297.817 209.848 297.817 209.848 297.818C209.848 297.819 209.848 297.82 209.848 297.821C209.848 297.822 209.848 297.822 209.848 297.823C209.848 297.824 209.848 297.825 209.848 297.826C209.848 297.827 209.848 297.828 209.848 297.828C209.848 297.829 209.848 297.83 209.848 297.831C209.848 297.832 209.848 297.833 209.848 297.834C209.848 297.834 209.848 297.835 209.848 297.836C209.848 297.837 209.848 297.838 209.848 297.839C209.848 297.84 209.848 297.841 209.848 297.841C209.848 297.842 209.848 297.843 209.848 297.844C209.848 297.845 209.848 297.846 209.848 297.847C209.848 297.847 209.848 297.848 209.848 297.849C209.848 297.85 209.848 297.851 209.848 297.852C209.848 297.853 209.848 297.854 209.848 297.854C209.848 297.855 209.848 297.856 209.848 297.857C209.848 297.858 209.848 297.859 209.848 297.86C209.848 297.861 209.848 297.862 209.848 297.862C209.848 297.863 209.848 297.864 209.848 297.865C209.848 297.866 209.848 297.867 209.848 297.868C209.848 297.869 209.848 297.87 209.848 297.87C209.848 297.871 209.848 297.872 209.848 297.873C209.848 297.874 209.848 297.875 209.848 297.876C209.848 297.877 209.848 297.878 209.848 297.878C209.848 297.879 209.848 297.88 209.848 297.881C209.848 297.882 209.848 297.883 209.848 297.884C209.848 297.885 209.848 297.886 209.848 297.887C209.848 297.887 209.848 297.888 209.848 297.889C209.848 297.89 209.848 297.891 209.848 297.892C209.848 297.893 209.848 297.894 209.848 297.895C209.848 297.896 209.848 297.897 209.848 297.897C209.848 297.898 209.848 297.899 209.848 297.9C209.848 297.901 209.848 297.902 209.848 297.903C209.848 297.904 209.848 297.905 209.848 297.906C209.848 297.907 209.848 297.908 209.848 297.908C209.848 297.909 209.848 297.91 209.848 297.911C209.848 297.912 209.848 297.913 209.848 297.914C209.848 297.915 209.848 297.916 209.848 297.917C209.848 297.918 209.848 297.919 209.848 297.92C209.848 297.921 209.848 297.921 209.848 297.922C209.848 297.923 209.848 297.924 209.848 297.925C209.848 297.926 209.848 297.927 209.848 297.928C209.848 297.929 209.848 297.93 209.848 297.931C209.848 297.932 209.848 297.933 209.848 297.934C209.848 297.935 209.848 297.936 209.848 297.936C209.848 297.937 209.848 297.938 209.848 297.939C209.848 297.94 209.848 297.941 209.848 297.942C209.848 297.943 209.848 297.944 209.848 297.945C209.848 297.946 209.848 297.947 209.848 297.948C209.848 297.949 209.848 297.95 209.848 297.951C209.848 297.952 209.848 297.953 209.848 297.954C209.848 297.955 209.848 297.956 209.848 297.956C209.848 297.957 209.848 297.958 209.848 297.959C209.848 297.96 209.848 297.961 209.848 297.962C209.848 297.963 209.848 297.964 209.848 297.965C209.848 297.966 209.848 297.967 209.848 297.968C209.848 297.969 209.848 297.97 209.848 297.971C209.848 297.972 209.848 297.973 209.848 297.974C209.848 297.975 209.848 297.976 209.848 297.977C209.848 297.978 209.848 297.979 209.848 297.98C209.848 297.981 209.848 297.982 209.848 297.983C209.848 297.984 209.848 297.985 209.848 297.986C209.848 297.987 209.848 297.988 209.848 297.989C209.848 297.99 209.848 297.99 209.848 297.991C209.848 297.992 209.848 297.993 209.848 297.994C209.848 297.995 209.848 297.996 209.848 297.997C209.848 297.998 209.848 297.999 209.848 298C209.848 298.001 209.848 298.002 209.848 298.003C209.848 298.004 209.848 298.005 209.848 298.006C209.848 298.007 209.848 298.008 209.848 298.009C209.848 298.01 209.848 298.011 209.848 298.012C209.848 298.013 209.848 298.014 209.848 298.015C209.848 298.016 209.848 298.017 209.848 298.018C209.848 298.019 209.848 298.02 209.848 298.021C209.848 298.022 209.848 298.023 209.848 298.024C209.848 298.025 209.848 298.026 209.848 298.027C209.848 298.028 209.848 298.029 209.848 298.03C209.848 298.031 209.848 298.033 209.848 298.034C209.848 298.035 209.848 298.036 209.848 298.037C209.848 298.038 209.848 298.039 209.848 298.04C209.848 298.041 209.848 298.042 209.848 298.043C209.848 298.044 209.848 298.045 209.848 298.046C209.848 298.047 209.848 298.048 209.848 298.049C209.848 298.05 209.848 298.051 209.848 298.052C209.848 298.053 209.848 298.054 209.848 298.055C209.848 298.056 209.848 298.057 209.848 298.058C209.848 298.059 209.848 298.06 209.848 298.061C209.848 298.062 209.848 298.063 209.848 298.064C209.848 298.065 209.848 298.066 209.848 298.067C209.848 298.069 209.848 298.07 209.848 298.071C209.848 298.072 209.848 298.073 209.848 298.074C209.848 298.075 209.848 298.076 209.848 298.077C209.848 298.078 209.848 298.079 209.848 298.08C209.848 298.081 209.848 298.082 209.848 298.083C209.848 298.084 209.848 298.085 209.848 298.086C209.848 298.087 209.848 298.088 209.848 298.089C209.848 298.091 209.848 298.092 209.848 298.093C209.848 298.094 209.848 298.095 209.848 298.096C209.848 298.097 209.848 298.098 209.848 298.099C209.848 298.1 209.848 298.101 209.848 298.102C209.848 298.103 209.848 298.104 209.848 298.105C209.848 298.106 209.848 298.108 209.848 298.109C209.848 298.11 209.848 298.111 209.848 298.112C209.848 298.113 209.848 298.114 209.848 298.115C209.848 298.116 209.848 298.117 209.848 298.118C209.848 298.119 209.848 298.12 209.848 298.121C209.848 298.123 209.848 298.124 209.848 298.125C209.848 298.126 209.848 298.127 209.848 298.128C209.848 298.129 209.848 298.13 209.848 298.131C209.848 298.132 209.848 298.133 209.848 298.134C209.848 298.136 209.848 298.137 209.848 298.138C209.848 298.139 209.848 298.14 209.848 298.141C209.848 298.142 209.848 298.143 209.848 298.144C209.848 298.145 209.848 298.146 209.848 298.148C209.848 298.149 209.848 298.15 209.848 298.151C209.848 298.152 209.848 298.153 209.848 298.154C209.848 298.155 209.848 298.156 209.848 298.157C209.848 298.159 209.848 298.16 209.848 298.161C209.848 298.162 209.848 298.163 209.848 298.164C209.848 298.165 209.848 298.166 209.848 298.167C209.848 298.169 209.848 298.17 209.848 298.171C209.848 298.172 209.848 298.173 209.848 298.174C209.848 298.175 209.848 298.176 209.848 298.177C209.848 298.179 209.848 298.18 209.848 298.181C209.848 298.182 209.848 298.183 209.848 298.184C209.848 298.185 209.848 298.186 209.848 298.188C209.848 298.189 209.848 298.19 209.848 298.191C209.848 298.192 209.848 298.193 209.848 298.194C209.848 298.195 209.848 298.197 209.848 298.198C209.848 298.199 209.848 298.2 209.848 298.201C209.848 298.202 209.848 298.203 209.848 298.204C209.848 298.206 209.848 298.207 209.848 298.208C209.848 298.209 209.848 298.21 209.848 298.211C209.848 298.212 209.848 298.214 209.848 298.215C209.848 298.216 209.848 298.217 209.848 298.218C209.848 298.219 209.848 298.22 209.848 298.221C209.848 298.223 209.848 298.224 209.848 298.225C209.848 298.226 209.848 298.227 209.848 298.228C209.848 298.23 209.848 298.231 209.848 298.232C209.848 298.233 209.848 298.234 209.848 298.235C209.848 298.236 209.848 298.238 209.848 298.239C209.848 298.24 209.848 298.241 209.848 298.242C209.848 298.243 209.848 298.245 209.848 298.246C209.848 298.247 209.848 298.248 209.848 298.249C209.848 298.25 209.848 298.251 209.848 298.253C209.848 298.254 209.848 298.255 209.848 298.256C209.848 298.257 209.848 298.258 209.848 298.26C209.848 298.261 209.848 298.262 209.848 298.263C209.848 298.264 209.848 298.266 209.848 298.267C209.848 298.268 209.848 298.269 209.848 298.27C209.848 298.271 209.848 298.273 209.848 298.274C209.848 298.275 209.848 298.276 209.848 298.277C209.848 298.278 209.848 298.28 209.848 298.281C209.848 298.282 209.848 298.283 209.848 298.284C209.848 298.286 209.848 298.287 209.848 298.288C209.848 298.289 209.848 298.29 209.848 298.291C209.848 298.293 209.848 298.294 209.848 298.295C209.848 298.296 209.848 298.297 209.848 298.299C209.848 298.3 209.848 298.301 209.848 298.302C209.848 298.303 209.848 298.305 209.848 298.306C209.848 298.307 209.848 298.308 209.848 298.309C209.848 298.311 209.848 298.312 209.848 298.313C209.848 298.314 209.848 298.315 209.848 298.317C209.848 298.318 209.848 298.319 209.848 298.32C209.848 298.321 209.848 298.323 209.848 298.324C209.848 298.325 209.848 298.326 209.848 298.327C209.848 298.329 209.848 298.33 209.848 298.331C209.848 298.332 209.848 298.333 209.848 298.335C209.848 298.336 209.848 298.337 209.848 298.338C209.848 298.34 209.848 298.341 209.848 298.342C209.848 298.343 209.848 298.344 209.848 298.346C209.848 298.347 209.848 298.348 209.848 298.349C209.848 298.351 209.848 298.352 209.848 298.353C209.848 298.354 209.848 298.355 209.848 298.357C209.848 298.358 209.848 298.359 209.848 298.36C209.848 298.362 209.848 298.363 209.848 298.364C209.848 298.365 209.848 298.367 209.848 298.368C209.848 298.369 209.848 298.37 209.848 298.371C209.848 298.373 209.848 298.374 209.848 298.375C209.848 298.376 209.848 298.378 209.848 298.379C209.848 298.38 209.848 298.381 209.848 298.383C209.848 298.384 209.848 298.385 209.848 298.386C209.848 298.388 209.848 298.389 209.848 298.39C209.848 298.391 209.848 298.393 209.848 298.394C209.848 298.395 209.848 298.396 209.848 298.398C209.848 298.399 209.848 298.4 209.848 298.401C209.848 298.403 209.848 298.404 209.848 298.405C209.848 298.406 209.848 298.408 209.848 298.409C209.848 298.41 209.848 298.411 209.848 298.413C209.848 298.414 209.848 298.415 209.848 298.416C209.848 298.418 209.848 298.419 209.848 298.42C209.848 298.422 209.848 298.423 209.848 298.424C209.848 298.425 209.848 298.427 209.848 298.428C209.848 298.429 209.848 298.43 209.848 298.432C209.848 298.433 209.848 298.434 209.848 298.435C209.848 298.437 209.848 298.438 209.848 298.439C209.848 298.441 209.848 298.442 209.848 298.443C209.848 298.444 209.848 298.446 209.848 298.447C209.848 298.448 209.848 298.45 209.848 298.451C209.848 298.452 209.848 298.453 209.848 298.455C209.848 298.456 209.848 298.457 209.848 298.458C209.848 298.46 209.848 298.461 209.848 298.462C209.848 298.464 209.848 298.465 209.848 298.466C209.848 298.468 209.848 298.469 209.848 298.47C209.848 298.471 209.848 298.473 209.848 298.474C209.848 298.475 209.848 298.477 209.848 298.478C209.848 298.479 209.848 298.48 209.848 298.482C209.848 298.483 209.848 298.484 209.848 298.486C209.848 298.487 209.848 298.488 209.848 298.49C209.848 298.491 209.848 298.492 209.848 298.494C209.848 298.495 209.848 298.496 209.848 298.497C209.848 298.499 209.848 298.5 209.848 298.501C209.848 298.503 209.848 298.504 209.848 298.505C209.848 298.507 209.848 298.508 209.848 298.509C209.848 298.511 209.848 298.512 209.848 298.513C209.848 298.515 209.848 298.516 209.848 298.517C209.848 298.518 209.848 298.52 209.848 298.521C209.848 298.522 209.848 298.524 209.848 298.525C209.848 298.526 209.848 298.528 209.848 298.529C209.848 298.53 209.848 298.532 209.848 298.533C209.848 298.534 209.848 298.536 209.848 298.537C209.848 298.538 209.848 298.54 209.848 298.541C209.848 298.542 209.848 298.544 209.848 298.545C209.848 298.546 209.848 298.548 209.848 298.549C209.848 298.55 209.848 298.552 209.848 298.553C209.848 298.554 209.848 298.556 209.848 298.557C209.848 298.558 209.848 298.56 209.848 298.561C209.848 298.562 209.848 298.564 209.848 298.565C209.848 298.566 209.848 298.568 209.848 298.569C209.848 298.571 209.848 298.572 209.848 298.573C209.848 298.575 209.848 298.576 209.848 298.577C209.848 298.579 209.848 298.58 209.848 298.581C209.848 298.583 209.848 298.584 209.848 298.585C209.848 298.587 209.848 298.588 209.848 298.59C209.848 298.591 209.848 298.592 209.848 298.594C209.848 298.595 209.848 298.596 209.848 298.598C209.848 298.599 209.848 298.6 209.848 298.602C209.848 298.603 209.848 298.604 209.848 298.606C209.848 298.607 209.848 298.609 209.848 298.61C209.848 298.611 209.848 298.613 209.848 298.614C209.848 298.615 209.848 298.617 209.848 298.618C209.848 298.62 209.848 298.621 209.848 298.622C209.848 298.624 209.848 298.625 209.848 298.626C209.848 298.628 209.848 298.629 209.848 298.631C209.848 298.632 209.848 298.633 209.848 298.635C209.848 298.636 209.848 298.638 209.848 298.639C209.848 298.64 209.848 298.642 209.848 298.643C209.848 298.644 209.848 298.646 209.848 298.647C209.848 298.649 209.848 298.65 209.848 298.651C209.848 298.653 209.848 298.654 209.848 298.656C209.848 298.657 209.848 298.658 209.848 298.66C209.848 298.661 209.848 298.663 209.848 298.664C209.848 298.665 209.848 298.667 209.848 298.668C209.848 298.67 209.848 298.671 209.848 298.672C209.848 298.674 209.848 298.675 209.848 298.677C209.848 298.678 209.848 298.679 209.848 298.681C209.848 298.682 209.848 298.684 209.848 298.685C209.848 298.686 209.848 298.688 209.848 298.689C209.848 298.691 209.848 298.692 209.848 298.694C209.848 298.695 209.848 298.696 209.848 298.698C209.848 298.699 209.848 298.701 209.848 298.702C209.848 298.703 209.848 298.705 209.848 298.706C209.848 298.708 209.848 298.709 209.848 298.711C209.848 298.712 209.848 298.713 209.848 298.715C209.848 298.716 209.848 298.718 209.848 298.719C209.848 298.721 209.848 298.722 209.848 298.723C209.848 298.725 209.848 298.726 209.848 298.728C209.848 298.729 209.848 298.731 209.848 298.732C209.848 298.733 209.848 298.735 209.848 298.736C209.848 298.738 209.848 298.739 209.848 298.741C209.848 298.742 209.848 298.743 209.848 298.745C209.848 298.746 209.848 298.748 209.848 298.749C209.848 298.751 209.848 298.752 209.848 298.754C209.848 298.755 209.848 298.756 209.848 298.758C209.848 298.759 209.848 298.761 209.848 298.762C209.848 298.764 209.848 298.765 209.848 298.767C209.848 298.768 209.848 298.77 209.848 298.771C209.848 298.772 209.848 298.774 209.848 298.775C209.848 298.777 209.848 298.778 209.848 298.78C209.848 298.781 209.848 298.783 209.848 298.784C209.848 298.786 209.848 298.787 209.848 298.788C209.848 298.79 209.848 298.791 209.848 298.793C209.848 298.794 209.848 298.796 209.848 298.797C209.848 298.799 209.848 298.8 209.848 298.802C209.848 298.803 209.848 298.805 209.848 298.806C209.848 298.808 209.848 298.809 209.848 298.81C209.848 298.812 209.848 298.813 209.848 298.815C209.848 298.816 209.848 298.818 209.848 298.819C209.848 298.821 209.848 298.822 209.848 298.824C209.848 298.825 209.848 298.827 209.848 298.828C209.848 298.83 209.848 298.831 209.848 298.833C209.848 298.834 209.848 298.836 209.848 298.837C209.848 298.839 209.848 298.84 209.848 298.842C209.848 298.843 209.848 298.845 209.848 298.846C209.848 298.848 209.848 298.849 209.848 298.851C209.848 298.852 209.848 298.854 209.848 298.855C209.848 298.857 209.848 298.858 209.848 298.859C209.848 298.861 209.848 298.862 209.848 298.864H219.848ZM219.848 297.424V296.56H209.848V297.424H219.848ZM214.848 291.56H148.32V301.56H214.848V291.56ZM143.32 296.56V335.152H153.32V296.56H143.32ZM148.32 330.152H90.72V340.152H148.32V330.152ZM95.72 335.152V234.64H85.72V335.152H95.72ZM90.72 229.64H79.776V239.64H90.72V229.64ZM84.776 234.64V214.192H74.776V234.64H84.776ZM75.6524 211.364L61.8284 231.524L70.0756 237.18L83.8997 217.02L75.6524 211.364ZM65.1969 239.295L85.9329 242.463L87.4431 232.577L66.7071 229.409L65.1969 239.295ZM81.8261 236.353C76.0507 260.417 68.8399 292.916 60.196 333.83L69.98 335.898C78.6161 295.02 85.8054 262.623 91.5499 238.687L81.8261 236.353ZM66.1482 329.978L5.09223 316.73L2.97177 326.502L64.0278 339.75L66.1482 329.978ZM8.69662 323.416C12.9719 312.34 16.4831 301.812 19.2216 291.836L9.57837 289.188C6.94086 298.796 3.54011 309.004 -0.632616 319.816L8.69662 323.416ZM19.1968 291.923C22.1022 282.044 25.5758 269.112 29.6153 253.146L19.9207 250.694C15.8962 266.6 12.4578 279.396 9.60317 289.101L19.1968 291.923ZM29.6187 253.133C30.3867 250.061 31.2507 246.605 32.2107 242.765L22.5093 240.339C21.5493 244.179 20.6853 247.635 19.9173 250.707L29.6187 253.133ZM32.2107 242.765C33.166 238.943 34.2177 234.832 35.3661 230.43L25.6899 227.906C24.5343 232.336 23.474 236.481 22.5093 240.339L32.2107 242.765ZM29.7891 234.113L54.8451 237.857L56.3229 227.967L31.2669 224.223L29.7891 234.113ZM57.8937 228.477C48.5259 223.598 39.6 219.573 31.1197 216.418L27.6323 225.79C35.664 228.779 44.2101 232.626 53.2743 237.347L57.8937 228.477ZM31.252 216.469C22.9293 213.101 13.8569 210.244 4.04687 207.89L1.71313 217.614C11.1031 219.868 19.6947 222.579 27.5 225.739L31.252 216.469ZM6.99606 215.591L35.7961 173.831L27.5639 168.153L-1.23606 209.913L6.99606 215.591ZM30.4105 175.828C45.4123 179.766 61.1412 185.692 77.6023 193.639L81.9497 184.633C65.0028 176.452 48.6677 170.282 32.9495 166.156L30.4105 175.828ZM84.776 189.136V184.816H74.776V189.136H84.776ZM79.776 189.816H92.736V179.816H79.776V189.816ZM97.736 184.816V144.784H87.736V184.816H97.736ZM88.4878 142.147L67.7518 175.555L76.2482 180.829L96.9842 147.421L88.4878 142.147ZM73.784 173.521C46.056 162.931 23.2091 155.275 5.29411 150.602L2.76989 160.278C20.1829 164.821 42.648 172.333 70.216 182.863L73.784 173.521ZM8.10426 158.341L39.4963 114.277L31.3517 108.475L-0.0402614 152.539L8.10426 158.341ZM33.9128 116.142C41.5862 118.575 53.1464 122.929 68.6735 129.254L72.4465 119.994C56.8696 113.647 45.0059 109.169 36.9352 106.61L33.9128 116.142ZM68.7449 129.283L90.9209 137.923L94.5512 128.605L72.3752 119.965L68.7449 129.283ZM97.736 133.264V117.424H87.736V133.264H97.736ZM92.736 122.424H275.328V112.424H92.736V122.424ZM270.328 117.424V184.816H280.328V117.424H270.328ZM275.328 189.816H283.968V179.816H275.328V189.816ZM217.44 148.136H150.048V158.136H217.44V148.136ZM145.048 153.136V184.816H155.048V153.136H145.048ZM150.048 189.816H156.96V179.816H150.048V189.816ZM161.96 184.816V158.32H151.96V184.816H161.96ZM156.96 163.32H217.44V153.32H156.96V163.32ZM222.44 158.32V153.136H212.44V158.32H222.44ZM195.16 179.92V184.816H205.16V179.92H195.16ZM200.16 189.816H217.44V179.816H200.16V189.816ZM222.44 184.816V179.92H212.44V184.816H222.44ZM217.44 174.92H200.16V184.92H217.44V174.92ZM228.2 219.664V214.768H218.2V219.664H228.2ZM223.2 209.768H142.272V219.768H223.2V209.768ZM137.272 214.768V219.664H147.272V214.768H137.272ZM142.272 224.664H223.2V214.664H142.272V224.664ZM214.848 242.888H148.32V252.888H214.848V242.888ZM143.32 247.888V252.496H153.32V247.888H143.32ZM148.32 257.496H214.848V247.496H148.32V257.496ZM219.848 252.496V247.888H209.848V252.496H219.848ZM143.32 272.08V276.976H153.32V272.08H143.32ZM148.32 281.976H214.848V271.976H148.32V281.976ZM219.848 276.976V272.08H209.848V276.976H219.848ZM214.848 267.08H148.32V277.08H214.848V267.08Z" fill="white"/>
</svg>
