<svg width="73" height="79" viewBox="0 0 73 79" fill="none" xmlns="http://www.w3.org/2000/svg">
<path d="M36.4902 19.1646C26.1265 19.1646 17.7625 28.1842 17.7625 39.3602C17.7625 50.5363 26.1265 59.5558 36.4902 59.5558C46.8539 59.5558 55.2179 50.5363 55.2179 39.3602C55.2179 28.1842 46.8539 19.1646 36.4902 19.1646ZM36.4902 52.4859C29.788 52.4859 24.3186 46.5877 24.3186 39.3602C24.3186 32.1327 29.788 26.2346 36.4902 26.2346C43.1923 26.2346 48.6618 32.1327 48.6618 39.3602C48.6618 46.5877 43.1923 52.4859 36.4902 52.4859ZM55.9849 13.6308C53.5652 13.6308 51.6111 15.738 51.6111 18.3474C51.6111 20.9567 53.5652 23.0639 55.9849 23.0639C58.4046 23.0639 60.3586 20.9666 60.3586 18.3474C60.3593 17.7277 60.2467 17.1141 60.0272 16.5415C59.8076 15.9689 59.4855 15.4486 59.0792 15.0105C58.6729 14.5724 58.1905 14.225 57.6595 13.9882C57.1285 13.7515 56.5594 13.63 55.9849 13.6308ZM72.9959 39.3602C72.9959 33.9248 73.0416 28.5387 72.7585 23.1132C72.4755 16.8113 71.1423 11.2183 66.869 6.61007C62.5866 1.99196 57.4093 0.564191 51.5655 0.258943C46.5252 -0.0463049 41.5305 0.00292885 36.4993 0.00292885C31.459 0.00292885 26.4644 -0.0463049 21.4332 0.258943C15.5893 0.564191 10.4029 2.00181 6.12962 6.61007C1.84718 11.2282 0.523183 16.8113 0.240122 23.1132C-0.0429392 28.5485 0.00271596 33.9347 0.00271596 39.3602C0.00271596 44.7858 -0.0429392 50.1818 0.240122 55.6073C0.523183 61.9092 1.85631 67.5021 6.12962 72.1104C10.4121 76.7285 15.5893 78.1563 21.4332 78.4615C26.4735 78.7668 31.4681 78.7175 36.4993 78.7175C41.5396 78.7175 46.5343 78.7668 51.5655 78.4615C57.4093 78.1563 62.5957 76.7187 66.869 72.1104C71.1515 67.4923 72.4755 61.9092 72.7585 55.6073C73.0507 50.1818 72.9959 44.7956 72.9959 39.3602ZM64.9606 62.5788C64.2941 64.3709 63.4906 65.71 62.2031 67.0886C60.9156 68.477 59.6829 69.3435 58.0211 70.0623C53.2182 72.1202 41.8136 71.6574 36.4902 71.6574C31.1668 71.6574 19.7531 72.1202 14.9502 70.0721C13.2883 69.3533 12.0465 68.4868 10.7682 67.0984C9.48069 65.71 8.67717 64.3807 8.0106 62.5886C6.11136 57.3994 6.54051 45.1009 6.54051 39.3602C6.54051 33.6196 6.11136 21.3112 8.0106 16.1318C8.67717 14.3397 9.48069 13.0006 10.7682 11.622C12.0556 10.2435 13.2883 9.36715 14.9502 8.64834C19.7531 6.60023 31.1668 7.06302 36.4902 7.06302C41.8136 7.06302 53.2273 6.60023 58.0302 8.64834C59.6921 9.36715 60.9339 10.2337 62.2122 11.622C63.4997 13.0104 64.3032 14.3397 64.9698 16.1318C66.869 21.3112 66.4399 33.6196 66.4399 39.3602C66.4399 45.1009 66.869 57.3994 64.9606 62.5788Z" fill="#AE1818"/>
</svg>
