<svg width="756" height="377" viewBox="0 0 756 377" fill="none" xmlns="http://www.w3.org/2000/svg">
<path fill-rule="evenodd" clip-rule="evenodd" d="M0 352.5H32.29H37.29V347.5V265.85V260.85H42.29H201.96H206.96V255.85V169.97V164.97H201.96H156.09H151.03C151.288 163.307 151.542 161.641 151.792 159.97C154.038 144.971 155.967 129.656 157.578 114.023C157.749 112.366 157.916 110.705 158.08 109.04L153.077 108.827L58.91 104.81C57.6567 130.817 56.56 150.87 55.62 164.97H42.29H37.29V159.97V93.83V88.83H42.29H181.75H186.75V83.83V5V0H181.75H0V5H181.75V83.83H37.29H32.29V88.83V164.97V169.97H37.29H55.62H60.2978L60.6089 165.303C61.4911 152.07 62.5092 133.637 63.6632 110.017L152.574 113.81C150.797 130.998 148.635 147.796 146.089 164.203L145.194 169.97H151.03H201.96V255.85H37.29H32.29V260.85V347.5H0V352.5ZM737.57 331.79C737.57 343.697 734.593 352.783 728.64 359.05C723 365.003 711.563 369.39 694.33 372.21C677.41 375.03 651.56 376.44 616.78 376.44C613.647 362.967 610.513 352.157 607.38 344.01C605.113 337.208 601.528 330.304 596.628 323.299C595.433 321.592 594.161 319.879 592.81 318.16C594.86 318.242 597.006 318.313 599.25 318.374C605.578 318.545 612.675 318.63 620.54 318.63C631.193 318.63 637.617 318.317 639.81 317.69C641.408 317.291 642.432 316.764 642.885 316.11C642.984 315.966 643.056 315.816 643.1 315.659C643.17 315.412 643.17 315.149 643.1 314.87V312.52V311.11H638.1H539.53H534.53V316.11V369.09V374.09H529.53H445.53H440.53V369.09V215.06V210.06H436.293H435.53H434.668H427.67H422.67V207.979V205.06V185.531V176.69L417.67 183.982L403.249 205.012L400.11 209.59L405.598 210.428L417.67 212.273L422.67 213.037L428.99 214.002L433.95 214.76L433.878 215.06C433.517 216.566 433.152 218.093 432.784 219.64C423.82 257.296 412.803 306.992 399.734 368.728C399.391 370.35 399.046 371.981 398.7 373.62L393.814 372.56L304.005 353.073L299.06 352C299.671 350.418 300.272 348.842 300.863 347.275C306.943 331.149 311.982 315.804 315.98 301.24C320.68 285.26 326.32 264.267 332.9 238.26L337.13 221.34C338.697 215.073 340.42 208.337 342.3 201.13L367.238 204.856L383.19 207.24C378.282 204.684 373.458 202.278 368.716 200.022C358.929 195.365 349.497 191.347 340.42 187.97C328.726 183.237 316.041 179.122 302.367 175.625C300.654 175.187 298.925 174.759 297.18 174.34L300.22 169.933L344.18 106.19C367.71 112.367 392.207 121.442 417.67 133.417C419.333 134.199 420.999 134.993 422.67 135.8V133.75V130.254V128.75H427.67H438.82H443.82V123.75V72.9012V63.42L438.82 71.4756L409.98 117.94C367.508 101.718 332.255 89.7996 304.22 82.1843C302.472 81.7095 300.752 81.2514 299.06 80.81L302.162 76.4556L350.29 8.89999C363.137 12.9733 382.25 20.18 407.63 30.52L438.82 42.6719L443.82 44.62V39.2539V23.77V18.77H448.82H736.8H741.8V23.77V123.75V128.75H746.8H750.9H755.9V133.75V205.06V210.06H750.9H742.57H737.57V215.06V331.79ZM693.508 367.278C677.646 369.922 653.446 371.33 620.732 371.434C617.885 359.66 615.008 349.936 612.087 342.32C609.979 336.031 606.856 329.745 602.768 323.459C608.191 323.573 614.116 323.63 620.54 323.63C625.903 323.63 630.263 323.551 633.591 323.389C636.677 323.239 639.356 323.001 641.094 322.523C642.581 322.146 644.354 321.522 645.766 320.311C646.544 319.645 647.326 318.702 647.779 317.433C648.142 316.419 648.22 315.402 648.1 314.453V314.449V314.442V314.435V314.429V314.422V314.415V314.409V314.402V314.396V314.389V314.382V314.376V314.369V314.363V314.356V314.349V314.343V314.336V314.33V314.323V314.317V314.31V314.304V314.298V314.291V314.285V314.278V314.272V314.265V314.259V314.253V314.246V314.24V314.234V314.227V314.221V314.215V314.208V314.202V314.196V314.189V314.183V314.177V314.171V314.164V314.158V314.152V314.146V314.14V314.133V314.127V314.121V314.115V314.109V314.103V314.097V314.091V314.084V314.078V314.072V314.066V314.06V314.054V314.048V314.042V314.036V314.03V314.024V314.018V314.012V314.006V314V313.994V313.988V313.983V313.977V313.971V313.965V313.959V313.953V313.947V313.941V313.936V313.93V313.924V313.918V313.912V313.907V313.901V313.895V313.889V313.884V313.878V313.872V313.867V313.861V313.855V313.85V313.844V313.838V313.833V313.827V313.821V313.816V313.81V313.805V313.799V313.794V313.788V313.783V313.777V313.772V313.766V313.761V313.755V313.75V313.744V313.739V313.733V313.728V313.722V313.717V313.712V313.706V313.701V313.695V313.69V313.685V313.679V313.674V313.669V313.664V313.658V313.653V313.648V313.642V313.637V313.632V313.627V313.622V313.616V313.611V313.606V313.601V313.596V313.591V313.585V313.58V313.575V313.57V313.565V313.56V313.555V313.55V313.545V313.54V313.535V313.53V313.525V313.52V313.515V313.51V313.505V313.5V313.495V313.49V313.485V313.48V313.475V313.47V313.465V313.461V313.456V313.451V313.446V313.441V313.436V313.432V313.427V313.422V313.417V313.413V313.408V313.403V313.398V313.394V313.389V313.384V313.38V313.375V313.37V313.366V313.361V313.356V313.352V313.347V313.342V313.338V313.333V313.329V313.324V313.32V313.315V313.311V313.306V313.302V313.297V313.293V313.288V313.284V313.279V313.275V313.27V313.266V313.262V313.257V313.253V313.249V313.244V313.24V313.235V313.231V313.227V313.223V313.218V313.214V313.21V313.205V313.201V313.197V313.193V313.188V313.184V313.18V313.176V313.172V313.168V313.163V313.159V313.155V313.151V313.147V313.143V313.139V313.135V313.131V313.126V313.122V313.118V313.114V313.11V313.106V313.102V313.098V313.094V313.09V313.086V313.083V313.079V313.075V313.071V313.067V313.063V313.059V313.055V313.051V313.048V313.044V313.04V313.036V313.032V313.029V313.025V313.021V313.017V313.013V313.01V313.006V313.002V312.999V312.995V312.991V312.988V312.984V312.98V312.977V312.973V312.969V312.966V312.962V312.959V312.955V312.951V312.948V312.944V312.941V312.937V312.934V312.93V312.927V312.923V312.92V312.916V312.913V312.91V312.906V312.903V312.899V312.896V312.893V312.889V312.886V312.882V312.879V312.876V312.872V312.869V312.866V312.863V312.859V312.856V312.853V312.85V312.846V312.843V312.84V312.837V312.834V312.83V312.827V312.824V312.821V312.818V312.815V312.812V312.808V312.805V312.802V312.799V312.796V312.793V312.79V312.787V312.784V312.781V312.778V312.775V312.772V312.769V312.766V312.763V312.76V312.757V312.754V312.752V312.749V312.746V312.743V312.74V312.737V312.734V312.732V312.729V312.726V312.723V312.72V312.718V312.715V312.712V312.709V312.707V312.704V312.701V312.699V312.696V312.693V312.691V312.688V312.685V312.683V312.68V312.677V312.675V312.672V312.67V312.667V312.665V312.662V312.66V312.657V312.655V312.652V312.65V312.647V312.645V312.642V312.64V312.637V312.635V312.632V312.63V312.628V312.625V312.623V312.621V312.618V312.616V312.614V312.611V312.609V312.607V312.604V312.602V312.6V312.598V312.595V312.593V312.591V312.589V312.586V312.584V312.582V312.58V312.578V312.576V312.574V312.571V312.569V312.567V312.565V312.563V312.561V312.559V312.557V312.555V312.553V312.551V312.549V312.547V312.545V312.543V312.541V312.539V312.537V312.535V312.533V312.531V312.529V312.527V312.526V312.524V312.522V312.52V311.11V306.11H643.1H534.53H529.53V311.11V369.09H445.53V210.06V205.06H440.53H427.67V176.69V160.557L418.546 173.862L395.986 206.762L391.483 213.33L399.355 214.533L427.824 218.882C418.865 256.543 407.872 306.144 394.848 367.668L305.802 348.346C311.807 332.363 316.805 317.115 320.79 302.605C325.513 286.545 331.166 265.498 337.747 239.486L337.749 239.48L337.751 239.473L341.981 222.553C343.224 217.581 344.566 212.31 346.008 206.74L382.451 212.185L385.5 202.805C370.333 194.906 355.908 188.402 342.23 183.309C330.838 178.701 318.555 174.681 305.39 171.242L346.293 111.933C369.977 118.407 394.71 127.854 420.496 140.303L427.67 143.766V135.8V133.75H443.82H448.82V128.75V63.42V51.9341V45.8833V44.62V23.77H736.8V128.75V133.75H741.8H750.9V205.06H737.57H732.57V210.06V331.79C732.57 342.905 729.798 350.572 725.015 355.606L725.01 355.611C720.601 360.265 710.666 364.47 693.523 367.276L693.515 367.277L693.508 367.278ZM442.005 49.2789L445.796 50.7558L439.572 60.7832L407.906 111.8C367.953 96.6293 334.409 85.3003 307.311 77.8458L352.234 14.7878C364.785 18.9477 382.601 25.7221 405.744 35.1504L405.779 35.1649L405.815 35.1789L442.005 49.2789ZM652.33 77.05V72.05H647.33H537.35H532.35V77.05V128.75V133.75H537.35H548.63H553.63V128.75V90.51H647.33H652.33V85.51V77.05ZM537.35 128.75H542.35H543.63H548.63V123.75V90.51V85.51H553.63H642.33H647.33V82.05V80.51V77.05H642.33H542.35H537.35V82.05V123.75V128.75ZM619.13 115.76H614.13V120.76V128.75V133.75H619.13H647.33H652.33V128.75V120.76V115.76H647.33H619.13ZM656.73 190.62H661.73V185.62V177.63V172.63H656.73H524.66H519.66V177.63V185.62V190.62H524.66H656.73ZM648.1 231.68V226.68H643.1H534.53H529.53V231.68V239.2V244.2H534.53H643.1H648.1V239.2V231.68ZM534.53 266.16H529.53V271.16V279.15V284.15H534.53H643.1H648.1V279.15V271.16V266.16H643.1H534.53ZM619.13 128.75H624.13H642.33H647.33V125.76V123.75V120.76H642.33H624.13H619.13V123.75V125.76V128.75ZM529.66 177.63H651.73H656.73V180.62V182.63V185.62H651.73H529.66H524.66V182.63V180.62V177.63H529.66ZM534.53 239.2H539.53H638.1H643.1V236.68V234.2V231.68H638.1H539.53H534.53V234.2V236.68V239.2ZM534.53 279.15H539.53H638.1H643.1V276.16V274.15V271.16H638.1H539.53H534.53V274.15V276.16V279.15Z" fill="white"/>
</svg>
