<svg width="74" height="65" viewBox="0 0 74 65" fill="none" xmlns="http://www.w3.org/2000/svg">
<path d="M74 7.68576C71.2787 8.94917 68.3173 9.85844 65.2669 10.2126C68.4339 8.18764 70.8055 4.98857 71.9368 1.21559C68.965 3.11825 65.7094 4.45243 62.3144 5.15895C60.8954 3.52634 59.1793 2.22574 57.2729 1.33817C55.3665 0.450607 53.3106 -0.00489841 51.2335 3.97246e-05C42.8295 3.97246e-05 36.0707 7.33162 36.0707 16.3286C36.0707 17.592 36.213 18.8554 36.4442 20.071C23.8604 19.3627 12.6372 12.8925 5.17582 2.98627C3.81628 5.48548 3.10383 8.33111 3.11261 11.2271C3.11261 16.8933 5.78945 21.8895 9.87141 24.8279C7.46585 24.7259 5.11662 24.0143 3.01478 22.7509V22.9519C3.01478 30.8865 8.22618 37.4619 15.1717 38.9742C13.8676 39.3388 12.5261 39.5253 11.1787 39.5293C10.1916 39.5293 9.25778 39.4241 8.31511 39.2805C10.236 45.7507 15.8298 50.4501 22.4908 50.6033C17.2794 54.9965 10.7518 57.5807 3.66398 57.5807C2.39226 57.5807 1.21836 57.5329 0 57.3797C6.72323 62.0218 14.7004 64.7018 23.2912 64.7018C51.1801 64.7018 66.4408 39.8356 66.4408 18.2524C66.4408 17.5442 66.4408 16.8359 66.3963 16.1276C69.3489 13.8018 71.9368 10.9208 74 7.68576Z" fill="#AE1818"/>
</svg>
